<?xml version="1.0" encoding="UTF-8"?>
<svg version="1.1" xmlns="http://www.w3.org/2000/svg" width="500" height="500" viewBox="0 0 500 500">
<path d="M0 0 C6.86819977 -0.15237584 13.73596237 -0.25730968 20.60546875 -0.32958984 C22.94124643 -0.35972682 25.27691127 -0.40064462 27.61230469 -0.45263672 C30.97359065 -0.52558378 34.33337828 -0.55948831 37.6953125 -0.5859375 C38.73615997 -0.61690521 39.77700745 -0.64787292 40.84939575 -0.67977905 C45.7939854 -0.68206429 49.03031403 -0.61814347 52.70654297 2.91162109 C55 6 55 6 55 8 C55.66 8 56.32 8 57 8 C58.69140625 9.64453125 58.69140625 9.64453125 60.5625 11.8125 C61.49255859 12.87404297 61.49255859 12.87404297 62.44140625 13.95703125 C64 16 64 16 65 19 C65.66 19 66.32 19 67 19 C68.51740976 20.69903023 69.965128 22.46072723 71.375 24.25 C73.59229313 27.05313312 75.7305752 29.73701197 78.2890625 32.234375 C80 34 80 34 80 36 C80.66 36 81.32 36 82 36 C83.47516321 37.65808345 84.880713 39.37846047 86.25 41.125 C88.89295299 44.44256781 91.4971413 47.62882736 94.5625 50.5625 C95.366875 51.366875 96.17125 52.17125 97 53 C97 53.66 97 54.32 97 55 C97.66 55 98.32 55 99 55 C100.35097374 56.51151546 101.62927345 58.08813313 102.875 59.6875 C106.46976605 64.18675557 110.19481878 68.47892324 114.125 72.6875 C118.02694914 76.86688834 121.87340742 81.07384376 125.59765625 85.4140625 C126.99852363 87.04685174 126.99852363 87.04685174 128.68359375 88.5859375 C130 90 130 90 130 92 C130.66 92 131.32 92 132 92 C133.51740976 93.69903023 134.965128 95.46072723 136.375 97.25 C138.59229313 100.05313312 140.7305752 102.73701197 143.2890625 105.234375 C145 107 145 107 145 109 C145.66 109 146.32 109 147 109 C148.5078125 110.4609375 148.5078125 110.4609375 150.125 112.375 C150.66382813 113.00148438 151.20265625 113.62796875 151.7578125 114.2734375 C153 116 153 116 153 118 C153.66 118 154.32 118 155 118 C156.41015625 119.3984375 156.41015625 119.3984375 158.0625 121.375 C160.7907947 124.58342938 163.55144446 127.74980367 166.375 130.875 C167.13425781 131.71675781 167.89351562 132.55851563 168.67578125 133.42578125 C169.82626953 134.70001953 169.82626953 134.70001953 171 136 C173.26284463 138.50956023 175.52448096 141.02013019 177.78125 143.53515625 C179.29462063 145.21638313 180.81581209 146.89059487 182.34375 148.55859375 C183.0759375 149.36425781 183.808125 150.16992188 184.5625 151 C185.22378906 151.721875 185.88507813 152.44375 186.56640625 153.1875 C188 155 188 155 188 157 C188.66 157 189.32 157 190 157 C190 157.66 190 158.32 190 159 C190.66 159 191.32 159 192 159 C197 164.47619048 197 164.47619048 197 167 C197.66 167 198.32 167 199 167 C200.5078125 168.4609375 200.5078125 168.4609375 202.125 170.375 C202.66382813 171.00148438 203.20265625 171.62796875 203.7578125 172.2734375 C205 174 205 174 205 176 C205.66 176 206.32 176 207 176 C208.515625 177.50390625 208.515625 177.50390625 210.25 179.5625 C210.86488281 180.28824219 211.47976563 181.01398438 212.11328125 181.76171875 C212.73589844 182.50035156 213.35851562 183.23898437 214 184 C214.59167969 184.66644531 215.18335938 185.33289063 215.79296875 186.01953125 C216.33566406 186.63183594 216.87835938 187.24414062 217.4375 187.875 C218.17806641 188.70644531 218.17806641 188.70644531 218.93359375 189.5546875 C220 191 220 191 220 193 C220.66 193 221.32 193 222 193 C223.4328718 194.61718311 224.79624749 196.29623372 226.125 198 C227.25826937 199.45187535 228.39534051 200.90174293 229.58056641 202.31152344 C230.62786224 203.55732633 231.63502778 204.83712561 232.61865234 206.13378906 C235.4598365 209.50361794 237.60720766 211.67185401 241.97607422 212.70117188 C245.47761672 212.93554137 248.86903108 212.90193082 252.375 212.75 C254.23378784 212.70697754 254.23378784 212.70697754 256.13012695 212.66308594 C269.15112911 212.20611959 282.46026896 210.46856017 294 204 C294.804375 203.55785156 295.60875 203.11570312 296.4375 202.66015625 C305.13313667 197.66281628 312.90862935 192.02953404 319 184 C319.56460937 183.27167969 320.12921875 182.54335938 320.7109375 181.79296875 C333.10860501 165.03716922 337.48191567 146.56444408 335 126 C334.53707409 122.91700887 333.86783635 119.99272051 333 117 C332.75636719 116.09121094 332.51273437 115.18242187 332.26171875 114.24609375 C328.05184373 100.02153807 319.35946669 86.32372246 307 78 C307 77.34 307 76.68 307 76 C306.360625 75.773125 305.72125 75.54625 305.0625 75.3125 C302.53418101 74.22893472 300.30932496 73.05884607 297.9375 71.6875 C294.42148308 69.71992762 290.87282969 67.94292073 287.1875 66.3125 C286.29417969 65.91675781 285.40085937 65.52101563 284.48046875 65.11328125 C274.63678906 61.9646295 264.50825379 61.63199174 254.25 61.375 C252.96867188 61.33632812 251.68734375 61.29765625 250.3671875 61.2578125 C247.24491847 61.16461044 244.12262065 61.08023118 241 61 C241.07105453 61.93130234 241.14210907 62.86260468 241.21531677 63.8221283 C242.14718413 77.04917264 242.12805585 90.24983085 242.09765625 103.50390625 C242.09578688 105.92341584 242.09436543 108.34292581 242.09336853 110.76243591 C242.08958418 117.07348713 242.07978966 123.38451466 242.06866455 129.69555664 C242.05836176 136.15836263 242.05385207 142.62117251 242.04882812 149.08398438 C242.03816298 161.72266625 242.02133405 174.36133185 242 187 C240.68 187 239.36 187 238 187 C234 182.77777778 234 182.77777778 234 180 C233.34 180 232.68 180 232 180 C230.58984375 178.6015625 230.58984375 178.6015625 228.9375 176.625 C226.22790758 173.4395494 223.48934832 170.29238511 220.6875 167.1875 C219.55248047 165.92873047 219.55248047 165.92873047 218.39453125 164.64453125 C215.89380296 161.88271551 213.38481427 159.12855951 210.875 156.375 C209.2489338 154.58430093 207.62387136 152.79268967 206 151 C205.30132812 150.23042969 204.60265625 149.46085938 203.8828125 148.66796875 C203.26148438 147.97316406 202.64015625 147.27835938 202 146.5625 C201.195625 145.66724609 201.195625 145.66724609 200.375 144.75390625 C198.94195718 142.92596242 197.96358988 141.10785287 197 139 C196.34 139 195.68 139 195 139 C195 138.34 195 137.68 195 137 C194.34 137 193.68 137 193 137 C191.4921875 135.5390625 191.4921875 135.5390625 189.875 133.625 C189.33617187 132.99851563 188.79734375 132.37203125 188.2421875 131.7265625 C187 130 187 130 187 128 C186.34 128 185.68 128 185 128 C183.58303493 126.42945794 182.23893184 124.79253336 180.9375 123.125 C180.22464844 122.22007812 179.51179687 121.31515625 178.77734375 120.3828125 C175.70269249 116.26075256 175.91100923 113.18788262 176.0168457 108.20825195 C176.04295107 106.5383649 176.0684179 104.86846778 176.09333801 103.19856262 C176.1077424 102.30980753 176.1221468 101.42105244 176.13698769 100.50536537 C176.21708305 94.79228874 176.22933664 89.07859042 176.25208759 83.36504841 C176.27585757 78.35468552 176.32437834 73.34703173 176.4284668 68.33764648 C176.52796295 63.4843811 176.55739083 58.63495934 176.54152489 53.78075218 C176.54761856 51.94240625 176.57809605 50.1039535 176.63485146 48.26647377 C176.91128069 38.85795106 176.60497413 31.87941822 170.16997814 24.58906078 C167.78776317 22.15156681 165.32142028 19.84573357 162.7628231 17.59486961 C160.02930361 15.121787 157.60124859 12.41681536 155.125 9.6875 C154.32320312 8.82511719 153.52140625 7.96273437 152.6953125 7.07421875 C151 5 151 5 151 3 C150.34 3 149.68 3 149 3 C149 2.01 149 1.02 149 0 C165.36096202 -0.07045596 181.72187393 -0.12316566 198.08295155 -0.15543652 C205.68173646 -0.1708267 213.28042646 -0.19176358 220.87915039 -0.22631836 C227.51146777 -0.25646377 234.14371634 -0.27563182 240.77610034 -0.28226548 C244.27950398 -0.28613577 247.78271096 -0.2950617 251.2860508 -0.31719017 C270.14254371 -0.43162278 288.63814666 -0.22967035 306.625 6.125 C307.49342529 6.4250293 308.36185059 6.72505859 309.2565918 7.03417969 C323.9723719 12.31587009 337.72197269 20.33291255 350 30 C350 30.66 350 31.32 350 32 C350.59329102 32.26876953 351.18658203 32.53753906 351.79785156 32.81445312 C354.00540033 34.00290732 355.46542882 35.20742389 357.234375 36.96875 C357.80800781 37.53980469 358.38164062 38.11085937 358.97265625 38.69921875 C359.55917969 39.29347656 360.14570313 39.88773438 360.75 40.5 C361.35199219 41.09425781 361.95398438 41.68851563 362.57421875 42.30078125 C363.14269531 42.87183594 363.71117187 43.44289062 364.296875 44.03125 C365.07562988 44.81338867 365.07562988 44.81338867 365.87011719 45.61132812 C367 47 367 47 367 49 C367.66 49 368.32 49 369 49 C370.58648939 51.07486766 372.05603132 53.14193367 373.5 55.3125 C373.90347656 55.90740234 374.30695313 56.50230469 374.72265625 57.11523438 C380 64.90933117 380 64.90933117 380 68 C380.66 68 381.32 68 382 68 C399.67006112 103.06525462 406.25971365 140.6586934 393.8125 178.75 C385.85197301 201.85354809 372.5414743 223.84192882 354 240 C353.34 240 352.68 240 352 240 C352 240.66 352 241.32 352 242 C341.07812103 251.32408906 328.13240609 258.36941767 315 264 C314.17113281 264.36867188 313.34226562 264.73734375 312.48828125 265.1171875 C295.87603062 272.20142 278.43825915 274.30830048 260.55078125 274.546875 C259.79187277 274.55752235 259.03296429 274.56816971 258.25105858 274.57913971 C254.24545759 274.63206953 250.23997064 274.67100882 246.23413086 274.70019531 C242.94655426 274.72698467 239.66142866 274.78294478 236.37475586 274.86425781 C232.36531452 274.96334938 228.35810697 275.01247679 224.34749413 275.02664948 C222.83436634 275.03997452 221.32127897 275.07015878 219.80886269 275.11843109 C208.11031763 275.47102528 208.11031763 275.47102528 202.91244507 271.84777832 C200.38535062 269.34868706 198.17819166 266.80442239 196 264 C194.77798294 262.61864197 193.55025628 261.24227286 192.3125 259.875 C191.50039063 258.92367187 191.50039063 258.92367187 190.671875 257.953125 C189.4719642 256.55136005 188.25053002 255.16791128 187.015625 253.796875 C186.37109375 253.08015625 185.7265625 252.3634375 185.0625 251.625 C184.47597656 250.97789062 183.88945312 250.33078125 183.28515625 249.6640625 C182 248 182 248 182 246 C181.34 246 180.68 246 180 246 C178.48259024 244.30096977 177.034872 242.53927277 175.625 240.75 C173.40770687 237.94686688 171.2694248 235.26298803 168.7109375 232.765625 C167 231 167 231 167 229 C166.34 229 165.68 229 165 229 C163.52483679 227.34191655 162.119287 225.62153953 160.75 223.875 C158.10704701 220.55743219 155.5028587 217.37117264 152.4375 214.4375 C151.633125 213.633125 150.82875 212.82875 150 212 C150 211.34 150 210.68 150 210 C149.34 210 148.68 210 148 210 C146.43567213 208.30725716 144.94671428 206.54430148 143.5 204.75 C142.7059375 203.77546875 141.911875 202.8009375 141.09375 201.796875 C139.41251966 199.55105238 138.11864101 197.5534197 137 195 C136.34 195 135.68 195 135 195 C133.58984375 193.6015625 133.58984375 193.6015625 131.9375 191.625 C129.22076214 188.42453655 126.45664781 185.28693937 123.625 182.1875 C120.44240212 178.66989182 117.40882038 175.07252949 114.4375 171.375 C111.12185329 167.27376452 107.63830182 163.52823584 103.86328125 159.8515625 C101.07103107 157.07687364 98.29013021 154.20965219 96 151 C96 150.34 96 149.68 96 149 C95.34 149 94.68 149 94 149 C92.48259024 147.30096977 91.034872 145.53927277 89.625 143.75 C87.40770687 140.94686688 85.2694248 138.26298803 82.7109375 135.765625 C81 134 81 134 81 132 C80.34 132 79.68 132 79 132 C77.5546875 130.56640625 77.5546875 130.56640625 75.875 128.5625 C73.21293558 125.40605219 70.5056478 122.29687524 67.7578125 119.21484375 C67.05027832 118.42070068 66.34274414 117.62655762 65.61376953 116.80834961 C64.81495361 115.91321655 64.81495361 115.91321655 64 115 C64.00092179 115.81336791 64.00184359 116.62673582 64.00279331 117.46475124 C64.02484687 137.22653613 64.04141073 156.9883189 64.05181217 176.75011349 C64.05697551 186.30663939 64.06401892 195.86315709 64.07543945 205.41967773 C64.08538514 213.74602007 64.09185315 222.07235648 64.09408849 230.39870459 C64.0953958 234.81024857 64.09848288 239.22177557 64.10573006 243.63331413 C64.11248846 247.78070387 64.11461733 251.92806953 64.11310768 256.07546425 C64.11338409 257.6021373 64.11539028 259.12881112 64.11920547 260.65547943 C64.12413994 262.73083459 64.12299923 264.80609742 64.12025452 266.88145447 C64.12117631 268.04567901 64.1220981 269.20990355 64.12304783 270.40940762 C64 273 64 273 63 274 C61.03630847 274.0940067 59.06920801 274.11743381 57.10327148 274.11352539 C55.84203964 274.11344986 54.5808078 274.11337433 53.28135681 274.11329651 C51.89460206 274.1081891 50.50784771 274.10297309 49.12109375 274.09765625 C47.71004791 274.09579201 46.29900143 274.09436814 44.88795471 274.09336853 C41.16759465 274.08954379 37.4472734 274.0797139 33.72692871 274.06866455 C29.93319219 274.05844948 26.13944942 274.05387071 22.34570312 274.04882812 C14.89711769 274.03809158 7.44856428 274.0210157 0 274 C-1.1878152 271.62436961 -1.12531525 270.19361713 -1.12584114 267.5428009 C-1.12844889 266.5995354 -1.13105664 265.65626989 -1.13374341 264.68442059 C-1.13039732 263.11937141 -1.13039732 263.11937141 -1.12698364 261.52270508 C-1.12854363 260.41984822 -1.13010362 259.31699137 -1.13171089 258.18071461 C-1.13572098 254.46030683 -1.13253119 250.73993938 -1.12939453 247.01953125 C-1.13074857 244.36241536 -1.13249214 241.70530231 -1.13470459 239.04818726 C-1.13916032 232.56535566 -1.13818669 226.08253561 -1.13529195 219.59970355 C-1.13303715 214.33279497 -1.13272573 209.06588964 -1.13381577 203.79898071 C-1.133969 203.0504816 -1.13412223 202.30198249 -1.13428011 201.53080159 C-1.13459982 200.01042612 -1.13492403 198.49005065 -1.1352527 196.96967518 C-1.13810691 182.70001079 -1.13482138 168.43035281 -1.12945233 154.16068947 C-1.12498435 141.90627675 -1.1257603 129.65187349 -1.13037109 117.39746094 C-1.13571788 103.18021711 -1.13783223 88.96297891 -1.13475883 74.74573421 C-1.13444027 73.23082924 -1.1341259 71.71592426 -1.13381577 70.20101929 C-1.13366149 69.45558091 -1.13350721 68.71014254 -1.13334826 67.94211513 C-1.13248342 62.67915164 -1.13394528 57.4161917 -1.13629532 52.15322876 C-1.13909467 45.74285886 -1.13835217 39.33250122 -1.13301457 32.92213273 C-1.1303794 29.6490323 -1.12990419 26.37595665 -1.13266373 23.10285568 C-1.13537558 19.56098136 -1.13199362 16.01916547 -1.12698364 12.47729492 C-1.12921436 11.4339288 -1.13144509 10.39056269 -1.13374341 9.31557941 C-1.13113566 8.37231391 -1.12852791 7.4290484 -1.12584114 6.4571991 C-1.12567879 5.63884677 -1.12551644 4.82049444 -1.12534916 3.97734356 C-1 2 -1 2 0 0 Z " fill="#F38847" transform="translate(66,111)"/>
<path d="M0 0 C16.36096202 -0.07045596 32.72187393 -0.12316566 49.08295155 -0.15543652 C56.68173646 -0.1708267 64.28042646 -0.19176358 71.87915039 -0.22631836 C78.51146777 -0.25646377 85.14371634 -0.27563182 91.77610034 -0.28226548 C95.27950398 -0.28613577 98.78271096 -0.2950617 102.2860508 -0.31719017 C121.57222246 -0.43419944 140.08562625 -0.07166394 158.4375 6.5 C159.31986328 6.79519531 160.20222656 7.09039062 161.11132812 7.39453125 C165.2859019 8.83360224 168.53117965 10.20810621 172 13 C168.63317508 12.37096687 165.39735031 11.57138755 162.125 10.5625 C161.25230469 10.29824219 160.37960937 10.03398438 159.48046875 9.76171875 C157.46322358 9.14224976 155.44976728 8.51045282 153.4375 7.875 C149.30761968 6.82375774 145.2381437 6.36519152 141 6 C141 5.34 141 4.68 141 4 C140.14277344 4.01160156 139.28554688 4.02320312 138.40234375 4.03515625 C137.25894531 4.04417969 136.11554688 4.05320312 134.9375 4.0625 C133.81214844 4.07410156 132.68679688 4.08570312 131.52734375 4.09765625 C128 4 128 4 124.90725708 3.5 C120.22462556 2.90077765 115.67089197 2.8757989 110.95654297 2.90234375 C109.97178482 2.90380402 108.98702667 2.90526428 107.97242737 2.9067688 C105.84229909 2.91056218 103.71217394 2.91666536 101.58205795 2.92483521 C98.20062377 2.93765761 94.8192291 2.94413017 91.43777466 2.94897461 C83.03566452 2.96231188 74.63359181 2.98644844 66.23150635 3.01037598 C59.13286672 3.03019491 52.03424146 3.04580244 44.93558121 3.05593872 C41.62278909 3.06236784 38.31005676 3.07487826 34.99728394 3.08764648 C24.94822437 3.11170716 15.00354694 3.07473496 5 2 C5.36752326 3.97571353 5.36752326 3.97571353 6 6 C7.31403276 6.70394612 8.6520257 7.36345658 10 8 C14.90250696 12.12256267 14.90250696 12.12256267 15.3125 15.8125 C15.1578125 16.8953125 15.1578125 16.8953125 15 18 C10.20166566 14.12442226 5.57092523 10.07516114 2 5 C2 4.34 2 3.68 2 3 C1.34 3 0.68 3 0 3 C0 2.01 0 1.02 0 0 Z " fill="#D39373" transform="translate(215,111)"/>
<path d="M0 0 C0.66 0 1.32 0 2 0 C3.08125233 14.17183042 3.13024175 28.29679179 3.09765625 42.50390625 C3.09578688 44.92341584 3.09436543 47.34292581 3.09336853 49.76243591 C3.08958418 56.07348713 3.07978966 62.38451466 3.06866455 68.69555664 C3.05836176 75.15836263 3.05385207 81.62117251 3.04882812 88.08398438 C3.03816298 100.72266625 3.02133405 113.36133185 3 126 C1.68 126 0.36 126 -1 126 C-5 121.77777778 -5 121.77777778 -5 119 C-5.66 119 -6.32 119 -7 119 C-8.48046875 117.53125 -8.48046875 117.53125 -10.1875 115.5 C-10.80109375 114.778125 -11.4146875 114.05625 -12.046875 113.3125 C-13.01367188 112.1678125 -13.01367188 112.1678125 -14 111 C-15.30962265 109.49748719 -16.62197391 107.99734677 -17.9375 106.5 C-18.95833333 105.33333333 -19.97916667 104.16666667 -21 103 C-17.80926781 101.9364226 -17.06624043 102.10980117 -14 103 C-13.34 103 -12.68 103 -12 103 C-10.64560332 105.70879335 -10.93498549 108.00933268 -11 111 C-9.02 111.33 -7.04 111.66 -5 112 C-4.71125 111.401875 -4.4225 110.80375 -4.125 110.1875 C-3 108 -3 108 -1 105 C-0.69036857 102.94226908 -0.69036857 102.94226908 -0.7215271 100.6530304 C-0.71036362 99.76542023 -0.69920013 98.87781006 -0.68769836 97.96330261 C-0.68553818 96.99226089 -0.68337799 96.02121918 -0.68115234 95.02075195 C-0.67110672 93.99618896 -0.6610611 92.97162598 -0.65071106 91.91601562 C-0.61977623 88.5234433 -0.60281521 85.13095026 -0.5859375 81.73828125 C-0.56723415 79.388436 -0.54766137 77.03859753 -0.5272522 74.68876648 C-0.47583706 68.49921658 -0.43626153 62.30964488 -0.39910889 56.11999512 C-0.35912802 49.80585293 -0.30800873 43.49180215 -0.2578125 37.17773438 C-0.16094212 24.78522037 -0.07657292 12.39265487 0 0 Z " fill="#DF8657" transform="translate(305,172)"/>
<path d="M0 0 C3.08301111 3.60777896 4.68486613 7.58628275 6.4375 11.9375 C6.89817871 13.07964966 6.89817871 13.07964966 7.36816406 14.24487305 C20.64251216 47.62348065 20.51822147 83.69404648 7 117 C3.82291764 124.21569653 0.27173062 131.36625362 -4 138 C-4.33 138 -4.66 138 -5 138 C-5 136.35 -5 134.7 -5 133 C-4.34 133 -3.68 133 -3 133 C-1.33510818 129.07561214 -0.12795963 125.10899581 1 121 C1.66 121 2.32 121 3 121 C3.33 119.35 3.66 117.7 4 116 C4.66 116 5.32 116 6 116 C6.2165625 114.9171875 6.2165625 114.9171875 6.4375 113.8125 C6.77651902 112.11740491 7.14323725 110.42705098 7.5625 108.75 C8.18592052 104.83135671 8.07763158 100.95921042 8 97 C9.98 96.505 9.98 96.505 12 96 C11.98839844 95.22914063 11.97679687 94.45828125 11.96484375 93.6640625 C11.95582031 92.66117187 11.94679688 91.65828125 11.9375 90.625 C11.92589844 89.62726563 11.91429687 88.62953125 11.90234375 87.6015625 C12 85 12 85 13 83 C13.08667255 80.37372867 13.11560135 77.77437517 13.09765625 75.1484375 C13.09553383 73.98738998 13.09553383 73.98738998 13.09336853 72.80288696 C13.08776403 70.32688558 13.07521083 67.85097412 13.0625 65.375 C13.05748558 63.69791797 13.05292257 62.02083453 13.04882812 60.34375 C13.03779315 56.22913194 13.02052554 52.11458122 13 48 C12.67 48 12.34 48 12 48 C11.66304138 45.27123692 11.33031571 42.54206837 11 39.8125 C10.90460938 39.04357422 10.80921875 38.27464844 10.7109375 37.48242188 C10.24807106 33.63071189 9.87532532 29.88829149 10 26 C9.34 26 8.68 26 8 26 C8 24.02 8 22.04 8 20 C7.34 20 6.68 20 6 20 C5.7525 19.0925 5.505 18.185 5.25 17.25 C4.28328737 13.94070729 4.28328737 13.94070729 1.875 12.25 C-1.14392845 8.62728586 -0.31142731 4.53299755 0 0 Z " fill="#D99473" transform="translate(449,183)"/>
<path d="M0 0 C3.56050965 0.30518654 5.00035037 1.00028808 7.8125 3.3125 C10 6 10 6 10 10 C14.15158516 11.98946225 17.50465073 12.24332273 22.08520508 12.22705078 C23.12505554 12.22748886 23.12505554 12.22748886 24.18591309 12.22793579 C26.46391574 12.22654897 28.74158615 12.21101867 31.01953125 12.1953125 C32.6042208 12.19158006 34.18891266 12.18873418 35.77360535 12.18673706 C39.93454413 12.17911877 44.09534221 12.15948588 48.25622559 12.1373291 C52.50608416 12.11683172 56.75596557 12.10772703 61.00585938 12.09765625 C69.33730399 12.0762382 77.66863447 12.04212416 86 12 C86.33 11.34 86.66 10.68 87 10 C87.92232422 10.03480469 87.92232422 10.03480469 88.86328125 10.0703125 C90.07564453 10.09738281 90.07564453 10.09738281 91.3125 10.125 C92.51326172 10.15980469 92.51326172 10.15980469 93.73828125 10.1953125 C96.28388576 10.15817322 96.28388576 10.15817322 99 8 C101.27896499 7.57164417 103.57425922 7.22691665 105.875 6.9375 C109.95418996 6.41352762 113.97792073 5.86405886 118 5 C118 4.34 118 3.68 118 3 C120.31 3 122.62 3 125 3 C108.74506718 13.83662188 86.50439739 15.29408084 67.55078125 15.546875 C66.79187277 15.55752235 66.03296429 15.56816971 65.25105858 15.57913971 C61.24545759 15.63206953 57.23997064 15.67100882 53.23413086 15.70019531 C49.94655426 15.72698467 46.66142866 15.78294478 43.37475586 15.86425781 C39.36531452 15.96334938 35.35810697 16.01247679 31.34749413 16.02664948 C29.83436634 16.03997452 28.32127897 16.07015878 26.80886269 16.11843109 C15.15567218 16.46965829 15.15567218 16.46965829 9.88827515 12.87854004 C5.85826026 8.95654955 2.7820807 4.87924133 0 0 Z " fill="#E1A17B" transform="translate(259,370)"/>
</svg>
