<?xml version="1.0" encoding="UTF-8"?>
<svg version="1.1" xmlns="http://www.w3.org/2000/svg" width="500" height="500">
<path d="M0 0 C6.86819977 -0.15237584 13.73596237 -0.25730968 20.60546875 -0.32958984 C22.94124643 -0.35972682 25.27691127 -0.40064462 27.61230469 -0.45263672 C30.97359065 -0.52558378 34.33337828 -0.55948831 37.6953125 -0.5859375 C38.73615997 -0.61690521 39.77700745 -0.64787292 40.84939575 -0.67977905 C45.7939854 -0.68206429 49.03031403 -0.61814347 52.70654297 2.91162109 C55 6 55 6 55 8 C55.66 8 56.32 8 57 8 C58.69140625 9.64453125 58.69140625 9.64453125 60.5625 11.8125 C61.49255859 12.87404297 61.49255859 12.87404297 62.44140625 13.95703125 C64 16 64 16 65 19 C65.66 19 66.32 19 67 19 C68.51740976 20.69903023 69.965128 22.46072723 71.375 24.25 C73.59229313 27.05313312 75.7305752 29.73701197 78.2890625 32.234375 C80 34 80 34 80 36 C80.66 36 81.32 36 82 36 C83.47516321 37.65808345 84.880713 39.37846047 86.25 41.125 C88.89295299 44.44256781 91.4971413 47.62882736 94.5625 50.5625 C95.366875 51.366875 96.17125 52.17125 97 53 C97 53.66 97 54.32 97 55 C97.66 55 98.32 55 99 55 C100.35097374 56.51151546 101.62927345 58.08813313 102.875 59.6875 C106.46976605 64.18675557 110.19481878 68.47892324 114.125 72.6875 C118.02694914 76.86688834 121.87340742 81.07384376 125.59765625 85.4140625 C126.99852363 87.04685174 126.99852363 87.04685174 128.68359375 88.5859375 C130 90 130 90 130 92 C130.66 92 131.32 92 132 92 C133.51740976 93.69903023 134.965128 95.46072723 136.375 97.25 C138.59229313 100.05313312 140.7305752 102.73701197 143.2890625 105.234375 C145 107 145 107 145 109 C145.66 109 146.32 109 147 109 C148.5078125 110.4609375 148.5078125 110.4609375 150.125 112.375 C150.66382813 113.00148438 151.20265625 113.62796875 151.7578125 114.2734375 C153 116 153 116 153 118 C153.66 118 154.32 118 155 118 C156.41015625 119.3984375 156.41015625 119.3984375 158.0625 121.375 C160.7907947 124.58342938 163.55144446 127.74980367 166.375 130.875 C167.13425781 131.71675781 167.89351562 132.55851563 168.67578125 133.42578125 C169.82626953 134.70001953 169.82626953 134.70001953 171 136 C173.26284463 138.50956023 175.52448096 141.02013019 177.78125 143.53515625 C179.29462063 145.21638313 180.81581209 146.89059487 182.34375 148.55859375 C183.0759375 149.36425781 183.808125 150.16992188 184.5625 151 C185.22378906 151.721875 185.88507813 152.44375 186.56640625 153.1875 C188 155 188 155 188 157 C188.66 157 189.32 157 190 157 C190 157.66 190 158.32 190 159 C190.66 159 191.32 159 192 159 C197 164.47619048 197 164.47619048 197 167 C197.66 167 198.32 167 199 167 C200.5078125 168.4609375 200.5078125 168.4609375 202.125 170.375 C202.66382813 171.00148438 203.20265625 171.62796875 203.7578125 172.2734375 C205 174 205 174 205 176 C205.66 176 206.32 176 207 176 C208.515625 177.50390625 208.515625 177.50390625 210.25 179.5625 C210.86488281 180.28824219 211.47976563 181.01398438 212.11328125 181.76171875 C212.73589844 182.50035156 213.35851562 183.23898437 214 184 C214.59167969 184.66644531 215.18335938 185.33289063 215.79296875 186.01953125 C216.33566406 186.63183594 216.87835938 187.24414062 217.4375 187.875 C218.17806641 188.70644531 218.17806641 188.70644531 218.93359375 189.5546875 C220 191 220 191 220 193 C220.66 193 221.32 193 222 193 C223.4328718 194.61718311 224.79624749 196.29623372 226.125 198 C227.25826937 199.45187535 228.39534051 200.90174293 229.58056641 202.31152344 C230.62786224 203.55732633 231.63502778 204.83712561 232.61865234 206.13378906 C235.4598365 209.50361794 237.60720766 211.67185401 241.97607422 212.70117188 C245.47761672 212.93554137 248.86903108 212.90193082 252.375 212.75 C254.23378784 212.70697754 254.23378784 212.70697754 256.13012695 212.66308594 C269.15112911 212.20611959 282.46026896 210.46856017 294 204 C294.804375 203.55785156 295.60875 203.11570312 296.4375 202.66015625 C305.13313667 197.66281628 312.90862935 192.02953404 319 184 C319.56460937 183.27167969 320.12921875 182.54335938 320.7109375 181.79296875 C333.10860501 165.03716922 337.48191567 146.56444408 335 126 C334.53707409 122.91700887 333.86783635 119.99272051 333 117 C332.75636719 116.09121094 332.51273437 115.18242187 332.26171875 114.24609375 C328.05184373 100.02153807 319.35946669 86.32372246 307 78 C307 77.34 307 76.68 307 76 C306.360625 75.773125 305.72125 75.54625 305.0625 75.3125 C302.53418101 74.22893472 300.30932496 73.05884607 297.9375 71.6875 C294.42148308 69.71992762 290.87282969 67.94292073 287.1875 66.3125 C286.29417969 65.91675781 285.40085937 65.52101563 284.48046875 65.11328125 C274.63678906 61.9646295 264.50825379 61.63199174 254.25 61.375 C252.96867188 61.33632812 251.68734375 61.29765625 250.3671875 61.2578125 C247.24491847 61.16461044 244.12262065 61.08023118 241 61 C241.07105453 61.93130234 241.14210907 62.86260468 241.21531677 63.8221283 C242.14718413 77.04917264 242.12805585 90.24983085 242.09765625 103.50390625 C242.09578688 105.92341584 242.09436543 108.34292581 242.09336853 110.76243591 C242.08958418 117.07348713 242.07978966 123.38451466 242.06866455 129.69555664 C242.05836176 136.15836263 242.05385207 142.62117251 242.04882812 149.08398438 C242.03816298 161.72266625 242.02133405 174.36133185 242 187 C240.68 187 239.36 187 238 187 C234 182.77777778 234 182.77777778 234 180 C233.34 180 232.68 180 232 180 C230.58984375 178.6015625 230.58984375 178.6015625 228.9375 176.625 C226.22790758 173.4395494 223.48934832 170.29238511 220.6875 167.1875 C219.55248047 165.92873047 219.55248047 165.92873047 218.39453125 164.64453125 C215.89380296 161.88271551 213.38481427 159.12855951 210.875 156.375 C209.2489338 154.58430093 207.62387136 152.79268967 206 151 C205.30132812 150.23042969 204.60265625 149.46085938 203.8828125 148.66796875 C203.26148438 147.97316406 202.64015625 147.27835938 202 146.5625 C201.195625 145.66724609 201.195625 145.66724609 200.375 144.75390625 C198.94195718 142.92596242 197.96358988 141.10785287 197 139 C196.34 139 195.68 139 195 139 C195 138.34 195 137.68 195 137 C194.34 137 193.68 137 193 137 C191.4921875 135.5390625 191.4921875 135.5390625 189.875 133.625 C189.33617187 132.99851563 188.79734375 132.37203125 188.2421875 131.7265625 C187 130 187 130 187 128 C186.34 128 185.68 128 185 128 C183.58303493 126.42945794 182.23893184 124.79253336 180.9375 123.125 C180.22464844 122.22007812 179.51179687 121.31515625 178.77734375 120.3828125 C175.70269249 116.26075256 175.91100923 113.18788262 176.0168457 108.20825195 C176.04295107 106.5383649 176.0684179 104.86846778 176.09333801 103.19856262 C176.1077424 102.30980753 176.1221468 101.42105244 176.13698769 100.50536537 C176.21708305 94.79228874 176.22933664 89.07859042 176.25208759 83.36504841 C176.27585757 78.35468552 176.32437834 73.34703173 176.4284668 68.33764648 C176.52796295 63.4843811 176.55739083 58.63495934 176.54152489 53.78075218 C176.54761856 51.94240625 176.57809605 50.1039535 176.63485146 48.26647377 C176.91128069 38.85795106 176.60497413 31.87941822 170.16997814 24.58906078 C167.78776317 22.15156681 165.32142028 19.84573357 162.7628231 17.59486961 C160.02930361 15.121787 157.60124859 12.41681536 155.125 9.6875 C154.32320312 8.82511719 153.52140625 7.96273437 152.6953125 7.07421875 C151 5 151 5 151 3 C150.34 3 149.68 3 149 3 C149 2.01 149 1.02 149 0 C165.36096202 -0.07045596 181.72187393 -0.12316566 198.08295155 -0.15543652 C205.68173646 -0.1708267 213.28042646 -0.19176358 220.87915039 -0.22631836 C227.51146777 -0.25646377 234.14371634 -0.27563182 240.77610034 -0.28226548 C244.27950398 -0.28613577 247.78271096 -0.2950617 251.2860508 -0.31719017 C270.14254371 -0.43162278 288.63814666 -0.22967035 306.625 6.125 C307.49342529 6.4250293 308.36185059 6.72505859 309.2565918 7.03417969 C323.9723719 12.31587009 337.72197269 20.33291255 350 30 C350 30.66 350 31.32 350 32 C350.59329102 32.26876953 351.18658203 32.53753906 351.79785156 32.81445312 C354.00540033 34.00290732 355.46542882 35.20742389 357.234375 36.96875 C357.80800781 37.53980469 358.38164062 38.11085937 358.97265625 38.69921875 C359.55917969 39.29347656 360.14570313 39.88773438 360.75 40.5 C361.35199219 41.09425781 361.95398438 41.68851563 362.57421875 42.30078125 C363.14269531 42.87183594 363.71117187 43.44289062 364.296875 44.03125 C365.07562988 44.81338867 365.07562988 44.81338867 365.87011719 45.61132812 C367 47 367 47 367 49 C367.66 49 368.32 49 369 49 C370.58648939 51.07486766 372.05603132 53.14193367 373.5 55.3125 C373.90347656 55.90740234 374.30695313 56.50230469 374.72265625 57.11523438 C380 64.90933117 380 64.90933117 380 68 C380.66 68 381.32 68 382 68 C399.67006112 103.06525462 406.25971365 140.6586934 393.8125 178.75 C385.85197301 201.85354809 372.5414743 223.84192882 354 240 C353.34 240 352.68 240 352 240 C352 240.66 352 241.32 352 242 C341.07812103 251.32408906 328.13240609 258.36941767 315 264 C314.17113281 264.36867188 313.34226562 264.73734375 312.48828125 265.1171875 C295.87603062 272.20142 278.43825915 274.30830048 260.55078125 274.546875 C259.79187277 274.55752235 259.03296429 274.56816971 258.25105858 274.57913971 C254.24545759 274.63206953 250.23997064 274.67100882 246.23413086 274.70019531 C242.94655426 274.72698467 239.66142866 274.78294478 236.37475586 274.86425781 C232.36531452 274.96334938 228.35810697 275.01247679 224.34749413 275.02664948 C222.83436634 275.03997452 221.32127897 275.07015878 219.80886269 275.11843109 C208.11031763 275.47102528 208.11031763 275.47102528 202.91244507 271.84777832 C200.38535062 269.34868706 198.17819166 266.80442239 196 264 C194.77798294 262.61864197 193.55025628 261.24227286 192.3125 259.875 C191.50039063 258.92367187 191.50039063 258.92367187 190.671875 257.953125 C189.4719642 256.55136005 188.25053002 255.16791128 187.015625 253.796875 C186.37109375 253.08015625 185.7265625 252.3634375 185.0625 251.625 C184.47597656 250.97789062 183.88945312 250.33078125 183.28515625 249.6640625 C182 248 182 248 182 246 C181.34 246 180.68 246 180 246 C178.48259024 244.30096977 177.034872 242.53927277 175.625 240.75 C173.40770687 237.94686688 171.2694248 235.26298803 168.7109375 232.765625 C167 231 167 231 167 229 C166.34 229 165.68 229 165 229 C163.52483679 227.34191655 162.119287 225.62153953 160.75 223.875 C158.10704701 220.55743219 155.5028587 217.37117264 152.4375 214.4375 C151.633125 213.633125 150.82875 212.82875 150 212 C150 211.34 150 210.68 150 210 C149.34 210 148.68 210 148 210 C146.43567213 208.30725716 144.94671428 206.54430148 143.5 204.75 C142.7059375 203.77546875 141.911875 202.8009375 141.09375 201.796875 C139.41251966 199.55105238 138.11864101 197.5534197 137 195 C136.34 195 135.68 195 135 195 C133.58984375 193.6015625 133.58984375 193.6015625 131.9375 191.625 C129.22076214 188.42453655 126.45664781 185.28693937 123.625 182.1875 C120.44240212 178.66989182 117.40882038 175.07252949 114.4375 171.375 C111.12185329 167.27376452 107.63830182 163.52823584 103.86328125 159.8515625 C101.07103107 157.07687364 98.29013021 154.20965219 96 151 C96 150.34 96 149.68 96 149 C95.34 149 94.68 149 94 149 C92.48259024 147.30096977 91.034872 145.53927277 89.625 143.75 C87.40770687 140.94686688 85.2694248 138.26298803 82.7109375 135.765625 C81 134 81 134 81 132 C80.34 132 79.68 132 79 132 C77.5546875 130.56640625 77.5546875 130.56640625 75.875 128.5625 C73.21293558 125.40605219 70.5056478 122.29687524 67.7578125 119.21484375 C67.05027832 118.42070068 66.34274414 117.62655762 65.61376953 116.80834961 C64.81495361 115.91321655 64.81495361 115.91321655 64 115 C64.00092179 115.81336791 64.00184359 116.62673582 64.00279331 117.46475124 C64.02484687 137.22653613 64.04141073 156.9883189 64.05181217 176.75011349 C64.05697551 186.30663939 64.06401892 195.86315709 64.07543945 205.41967773 C64.08538514 213.74602007 64.09185315 222.07235648 64.09408849 230.39870459 C64.0953958 234.81024857 64.09848288 239.22177557 64.10573006 243.63331413 C64.11248846 247.78070387 64.11461733 251.92806953 64.11310768 256.07546425 C64.11338409 257.6021373 64.11539028 259.12881112 64.11920547 260.65547943 C64.12413994 262.73083459 64.12299923 264.80609742 64.12025452 266.88145447 C64.12117631 268.04567901 64.1220981 269.20990355 64.12304783 270.40940762 C64 273 64 273 63 274 C61.03630847 274.0940067 59.06920801 274.11743381 57.10327148 274.11352539 C55.84203964 274.11344986 54.5808078 274.11337433 53.28135681 274.11329651 C51.89460206 274.1081891 50.50784771 274.10297309 49.12109375 274.09765625 C47.71004791 274.09579201 46.29900143 274.09436814 44.88795471 274.09336853 C41.16759465 274.08954379 37.4472734 274.0797139 33.72692871 274.06866455 C29.93319219 274.05844948 26.13944942 274.05387071 22.34570312 274.04882812 C14.89711769 274.03809158 7.44856428 274.0210157 0 274 C-1.1878152 271.62436961 -1.12531525 270.19361713 -1.12584114 267.5428009 C-1.12844889 266.5995354 -1.13105664 265.65626989 -1.13374341 264.68442059 C-1.13039732 263.11937141 -1.13039732 263.11937141 -1.12698364 261.52270508 C-1.12854363 260.41984822 -1.13010362 259.31699137 -1.13171089 258.18071461 C-1.13572098 254.46030683 -1.13253119 250.73993938 -1.12939453 247.01953125 C-1.13074857 244.36241536 -1.13249214 241.70530231 -1.13470459 239.04818726 C-1.13916032 232.56535566 -1.13818669 226.08253561 -1.13529195 219.59970355 C-1.13303715 214.33279497 -1.13272573 209.06588964 -1.13381577 203.79898071 C-1.133969 203.0504816 -1.13412223 202.30198249 -1.13428011 201.53080159 C-1.13459982 200.01042612 -1.13492403 198.49005065 -1.1352527 196.96967518 C-1.13810691 182.70001079 -1.13482138 168.43035281 -1.12945233 154.16068947 C-1.12498435 141.90627675 -1.1257603 129.65187349 -1.13037109 117.39746094 C-1.13571788 103.18021711 -1.13783223 88.96297891 -1.13475883 74.74573421 C-1.13444027 73.23082924 -1.1341259 71.71592426 -1.13381577 70.20101929 C-1.13366149 69.45558091 -1.13350721 68.71014254 -1.13334826 67.94211513 C-1.13248342 62.67915164 -1.13394528 57.4161917 -1.13629532 52.15322876 C-1.13909467 45.74285886 -1.13835217 39.33250122 -1.13301457 32.92213273 C-1.1303794 29.6490323 -1.12990419 26.37595665 -1.13266373 23.10285568 C-1.13537558 19.56098136 -1.13199362 16.01916547 -1.12698364 12.47729492 C-1.12921436 11.4339288 -1.13144509 10.39056269 -1.13374341 9.31557941 C-1.13113566 8.37231391 -1.12852791 7.4290484 -1.12584114 6.4571991 C-1.12567879 5.63884677 -1.12551644 4.82049444 -1.12534916 3.97734356 C-1 2 -1 2 0 0 Z " fill="#F38847" transform="translate(66,111)"/>
<path d="M0 0 C16.36096202 -0.07045596 32.72187393 -0.12316566 49.08295155 -0.15543652 C56.68173646 -0.1708267 64.28042646 -0.19176358 71.87915039 -0.22631836 C78.51146777 -0.25646377 85.14371634 -0.27563182 91.77610034 -0.28226548 C95.27950398 -0.28613577 98.78271096 -0.2950617 102.2860508 -0.31719017 C121.57222246 -0.43419944 140.08562625 -0.07166394 158.4375 6.5 C159.31986328 6.79519531 160.20222656 7.09039062 161.11132812 7.39453125 C165.2859019 8.83360224 168.53117965 10.20810621 172 13 C168.63317508 12.37096687 165.39735031 11.57138755 162.125 10.5625 C161.25230469 10.29824219 160.37960937 10.03398438 159.48046875 9.76171875 C157.46322358 9.14224976 155.44976728 8.51045282 153.4375 7.875 C149.30761968 6.82375774 145.2381437 6.36519152 141 6 C141 5.34 141 4.68 141 4 C140.14277344 4.01160156 139.28554688 4.02320312 138.40234375 4.03515625 C137.25894531 4.04417969 136.11554688 4.05320312 134.9375 4.0625 C133.81214844 4.07410156 132.68679688 4.08570312 131.52734375 4.09765625 C128 4 128 4 124.90725708 3.5 C120.22462556 2.90077765 115.67089197 2.8757989 110.95654297 2.90234375 C109.97178482 2.90380402 108.98702667 2.90526428 107.97242737 2.9067688 C105.84229909 2.91056218 103.71217394 2.91666536 101.58205795 2.92483521 C98.20062377 2.93765761 94.8192291 2.94413017 91.43777466 2.94897461 C83.03566452 2.96231188 74.63359181 2.98644844 66.23150635 3.01037598 C59.13286672 3.03019491 52.03424146 3.04580244 44.93558121 3.05593872 C41.62278909 3.06236784 38.31005676 3.07487826 34.99728394 3.08764648 C24.94822437 3.11170716 15.00354694 3.07473496 5 2 C5.36752326 3.97571353 5.36752326 3.97571353 6 6 C7.31403276 6.70394612 8.6520257 7.36345658 10 8 C14.90250696 12.12256267 14.90250696 12.12256267 15.3125 15.8125 C15.1578125 16.8953125 15.1578125 16.8953125 15 18 C10.20166566 14.12442226 5.57092523 10.07516114 2 5 C2 4.34 2 3.68 2 3 C1.34 3 0.68 3 0 3 C0 2.01 0 1.02 0 0 Z " fill="#D39373" transform="translate(215,111)"/>
<path d="M0 0 C0.66 0 1.32 0 2 0 C3.08125233 14.17183042 3.13024175 28.29679179 3.09765625 42.50390625 C3.09578688 44.92341584 3.09436543 47.34292581 3.09336853 49.76243591 C3.08958418 56.07348713 3.07978966 62.38451466 3.06866455 68.69555664 C3.05836176 75.15836263 3.05385207 81.62117251 3.04882812 88.08398438 C3.03816298 100.72266625 3.02133405 113.36133185 3 126 C1.68 126 0.36 126 -1 126 C-5 121.77777778 -5 121.77777778 -5 119 C-5.66 119 -6.32 119 -7 119 C-8.48046875 117.53125 -8.48046875 117.53125 -10.1875 115.5 C-10.80109375 114.778125 -11.4146875 114.05625 -12.046875 113.3125 C-13.01367188 112.1678125 -13.01367188 112.1678125 -14 111 C-15.30962265 109.49748719 -16.62197391 107.99734677 -17.9375 106.5 C-18.95833333 105.33333333 -19.97916667 104.16666667 -21 103 C-17.80926781 101.9364226 -17.06624043 102.10980117 -14 103 C-13.34 103 -12.68 103 -12 103 C-10.64560332 105.70879335 -10.93498549 108.00933268 -11 111 C-9.02 111.33 -7.04 111.66 -5 112 C-4.71125 111.401875 -4.4225 110.80375 -4.125 110.1875 C-3 108 -3 108 -1 105 C-0.69036857 102.94226908 -0.69036857 102.94226908 -0.7215271 100.6530304 C-0.71036362 99.76542023 -0.69920013 98.87781006 -0.68769836 97.96330261 C-0.68553818 96.99226089 -0.68337799 96.02121918 -0.68115234 95.02075195 C-0.67110672 93.99618896 -0.6610611 92.97162598 -0.65071106 91.91601562 C-0.61977623 88.5234433 -0.60281521 85.13095026 -0.5859375 81.73828125 C-0.56723415 79.388436 -0.54766137 77.03859753 -0.5272522 74.68876648 C-0.47583706 68.49921658 -0.43626153 62.30964488 -0.39910889 56.11999512 C-0.35912802 49.80585293 -0.30800873 43.49180215 -0.2578125 37.17773438 C-0.16094212 24.78522037 -0.07657292 12.39265487 0 0 Z " fill="#DF8657" transform="translate(305,172)"/>
<path d="M0 0 C3.08301111 3.60777896 4.68486613 7.58628275 6.4375 11.9375 C6.89817871 13.07964966 6.89817871 13.07964966 7.36816406 14.24487305 C20.64251216 47.62348065 20.51822147 83.69404648 7 117 C3.82291764 124.21569653 0.27173062 131.36625362 -4 138 C-4.33 138 -4.66 138 -5 138 C-5 136.35 -5 134.7 -5 133 C-4.34 133 -3.68 133 -3 133 C-1.33510818 129.07561214 -0.12795963 125.10899581 1 121 C1.66 121 2.32 121 3 121 C3.33 119.35 3.66 117.7 4 116 C4.66 116 5.32 116 6 116 C6.2165625 114.9171875 6.2165625 114.9171875 6.4375 113.8125 C6.77651902 112.11740491 7.14323725 110.42705098 7.5625 108.75 C8.18592052 104.83135671 8.07763158 100.95921042 8 97 C9.98 96.505 9.98 96.505 12 96 C11.98839844 95.22914063 11.97679687 94.45828125 11.96484375 93.6640625 C11.95582031 92.66117187 11.94679688 91.65828125 11.9375 90.625 C11.92589844 89.62726563 11.91429687 88.62953125 11.90234375 87.6015625 C12 85 12 85 13 83 C13.08667255 80.37372867 13.11560135 77.77437517 13.09765625 75.1484375 C13.09553383 73.98738998 13.09553383 73.98738998 13.09336853 72.80288696 C13.08776403 70.32688558 13.07521083 67.85097412 13.0625 65.375 C13.05748558 63.69791797 13.05292257 62.02083453 13.04882812 60.34375 C13.03779315 56.22913194 13.02052554 52.11458122 13 48 C12.67 48 12.34 48 12 48 C11.66304138 45.27123692 11.33031571 42.54206837 11 39.8125 C10.90460938 39.04357422 10.80921875 38.27464844 10.7109375 37.48242188 C10.24807106 33.63071189 9.87532532 29.88829149 10 26 C9.34 26 8.68 26 8 26 C8 24.02 8 22.04 8 20 C7.34 20 6.68 20 6 20 C5.7525 19.0925 5.505 18.185 5.25 17.25 C4.28328737 13.94070729 4.28328737 13.94070729 1.875 12.25 C-1.14392845 8.62728586 -0.31142731 4.53299755 0 0 Z " fill="#D99473" transform="translate(449,183)"/>
<path d="M0 0 C3.56050965 0.30518654 5.00035037 1.00028808 7.8125 3.3125 C10 6 10 6 10 10 C14.15158516 11.98946225 17.50465073 12.24332273 22.08520508 12.22705078 C23.12505554 12.22748886 23.12505554 12.22748886 24.18591309 12.22793579 C26.46391574 12.22654897 28.74158615 12.21101867 31.01953125 12.1953125 C32.6042208 12.19158006 34.18891266 12.18873418 35.77360535 12.18673706 C39.93454413 12.17911877 44.09534221 12.15948588 48.25622559 12.1373291 C52.50608416 12.11683172 56.75596557 12.10772703 61.00585938 12.09765625 C69.33730399 12.0762382 77.66863447 12.04212416 86 12 C86.33 11.34 86.66 10.68 87 10 C87.92232422 10.03480469 87.92232422 10.03480469 88.86328125 10.0703125 C90.07564453 10.09738281 90.07564453 10.09738281 91.3125 10.125 C92.51326172 10.15980469 92.51326172 10.15980469 93.73828125 10.1953125 C96.28388576 10.15817322 96.28388576 10.15817322 99 8 C101.27896499 7.57164417 103.57425922 7.22691665 105.875 6.9375 C109.95418996 6.41352762 113.97792073 5.86405886 118 5 C118 4.34 118 3.68 118 3 C120.31 3 122.62 3 125 3 C108.74506718 13.83662188 86.50439739 15.29408084 67.55078125 15.546875 C66.79187277 15.55752235 66.03296429 15.56816971 65.25105858 15.57913971 C61.24545759 15.63206953 57.23997064 15.67100882 53.23413086 15.70019531 C49.94655426 15.72698467 46.66142866 15.78294478 43.37475586 15.86425781 C39.36531452 15.96334938 35.35810697 16.01247679 31.34749413 16.02664948 C29.83436634 16.03997452 28.32127897 16.07015878 26.80886269 16.11843109 C15.15567218 16.46965829 15.15567218 16.46965829 9.88827515 12.87854004 C5.85826026 8.95654955 2.7820807 4.87924133 0 0 Z " fill="#E1A17B" transform="translate(259,370)"/>
<path d="M0 0 C2 1.375 2 1.375 4 3 C4 3.66 4 4.32 4 5 C4.66 5 5.32 5 6 5 C7.4328718 6.61718311 8.79624749 8.29623372 10.125 10 C11.25826937 11.45187535 12.39534051 12.90174293 13.58056641 14.31152344 C14.62786224 15.55732633 15.63502778 16.83712561 16.61865234 18.13378906 C19.4598365 21.50361794 21.60720766 23.67185401 25.97607422 24.70117188 C29.47761672 24.93554137 32.86903108 24.90193082 36.375 24.75 C37.61419189 24.72131836 38.85338379 24.69263672 40.13012695 24.66308594 C58.24342146 24.02740783 72.68858827 19.57881918 88 10 C88.79535156 9.50628906 89.59070313 9.01257813 90.41015625 8.50390625 C92.27700714 7.34165164 94.13906337 6.17170084 96 5 C96 5.99 96 6.98 96 8 C95.34 8 94.68 8 94 8 C93.67 8.99 93.34 9.98 93 11 C90.15342519 14.23124709 88.26871413 16.23772962 84 17 C83.67 17.66 83.34 18.32 83 19 C78.58249886 21.16544173 74.8595118 22.19008137 70 23 C69.67 23.66 69.34 24.32 69 25 C58.9878422 27.32108152 47.53883901 26.11030771 37.3125 26.0625 C35.43554807 26.05747491 33.55859484 26.05291379 31.68164062 26.04882812 C27.12106113 26.03790258 22.56054521 26.02069357 18 26 C18 24.35 18 22.7 18 21 C17.34 21 16.68 21 16 21 C16 20.34 16 19.68 16 19 C15.360625 18.731875 14.72125 18.46375 14.0625 18.1875 C12 17 12 17 11 14 C10.01 14 9.02 14 8 14 C8 13.01 8 12.02 8 11 C7.236875 10.814375 6.47375 10.62875 5.6875 10.4375 C1.90301671 8.4132415 1.345778 5.96650357 0 2 C0 1.34 0 0.68 0 0 Z " fill="#D78D69" transform="translate(282,299)"/>
<path d="M0 0 C6.8865118 -0.15221925 13.77258945 -0.25724395 20.66040039 -0.32958984 C23.00301322 -0.35975015 25.34551325 -0.40068517 27.68774414 -0.45263672 C31.05643541 -0.52548101 34.42363323 -0.55946479 37.79296875 -0.5859375 C38.83897751 -0.61690521 39.88498627 -0.64787292 40.96269226 -0.67977905 C48.10406263 -0.68307932 48.10406263 -0.68307932 50.80435181 1.37567139 C52.20043945 3.03662109 52.20043945 3.03662109 54 6 C52.68 5.67 51.36 5.34 50 5 C50 4.34 50 3.68 50 3 C34.49 3 18.98 3 3 3 C2.14046597 8.93148906 2.14046597 8.93148906 1.84178162 14.7900238 C1.8319928 15.67471848 1.82220398 16.55941315 1.81211853 17.47091675 C1.80636307 18.41822662 1.8006076 19.3655365 1.79467773 20.34155273 C1.78477814 21.35694626 1.77487854 22.37233978 1.76467896 23.41850281 C1.73322653 26.75684317 1.70837108 30.09519774 1.68359375 33.43359375 C1.66301017 35.75529845 1.64201334 38.07699952 1.62062073 40.3986969 C1.56554504 46.49613497 1.51607201 52.59360605 1.46777344 58.69110107 C1.41745228 64.91844606 1.36182171 71.14574339 1.30664062 77.37304688 C1.19923653 89.58199049 1.09775242 101.79097556 1 114 C0.67 114 0.34 114 0 114 C-0.1538313 99.43161407 -0.30179886 84.86317878 -0.4429636 70.29466438 C-0.50861024 63.53055881 -0.57616785 56.76648231 -0.64819336 50.00244141 C-0.71764394 43.4797157 -0.78180997 36.95695062 -0.84269524 30.43413925 C-0.86684604 27.94054262 -0.89279386 25.44696275 -0.92053413 22.95340347 C-0.95896562 19.47172926 -0.99111507 15.99005124 -1.02172852 12.50830078 C-1.03467453 11.46820862 -1.04762054 10.42811646 -1.06095886 9.35650635 C-1.06799835 8.41137177 -1.07503784 7.46623718 -1.08229065 6.49246216 C-1.09058679 5.66837923 -1.09888292 4.8442963 -1.10743046 3.99524117 C-1 2 -1 2 0 0 Z " fill="#D99A75" transform="translate(66,111)"/>
<path d="M0 0 C1.32 0 2.64 0 4 0 C4 0.99 4 1.98 4 3 C6.475 3.99 6.475 3.99 9 5 C9 5.99 9 6.98 9 8 C9.639375 8.12375 10.27875 8.2475 10.9375 8.375 C11.618125 8.58125 12.29875 8.7875 13 9 C14.61454805 12.2290961 14.12915781 15.75858658 14.11352539 19.30517578 C14.11367142 20.16378204 14.11381744 21.02238831 14.1139679 21.90701294 C14.11326963 24.75313824 14.10548125 27.59919859 14.09765625 30.4453125 C14.09579176 32.41543543 14.09436801 34.38555882 14.09336853 36.35568237 C14.08954576 41.54739659 14.07971751 46.73908294 14.06866455 51.93078613 C14.05844528 57.225989 14.0538698 62.52119637 14.04882812 67.81640625 C14.03809504 78.21094976 14.02102148 88.60547256 14 99 C13.34 98.67 12.68 98.34 12 98 C12.01189865 96.96176086 12.0237973 95.92352173 12.03605652 94.8538208 C12.141422 85.02696535 12.18815395 75.2013093 12.17878246 65.37387466 C12.1758146 60.32226166 12.19286634 55.27243257 12.25708008 50.22119141 C12.31839718 45.33802514 12.32528416 40.4574298 12.29583168 35.5739975 C12.29394104 33.71938843 12.31103845 31.86465127 12.34822655 30.01041412 C12.66479678 17.80689587 12.66479678 17.80689587 6.97453022 7.41866684 C4.75266298 5.14511838 2.41116599 3.07103725 0 1 C0 0.67 0 0.34 0 0 Z " fill="#DFBE7D" transform="translate(230,129)"/>
<path d="M0 0 C0.33 0 0.66 0 1 0 C2.08125233 14.17183042 2.13024175 28.29679179 2.09765625 42.50390625 C2.09578688 44.92341584 2.09436543 47.34292581 2.09336853 49.76243591 C2.08958418 56.07348713 2.07978966 62.38451466 2.06866455 68.69555664 C2.05836176 75.15836263 2.05385207 81.62117251 2.04882812 88.08398438 C2.03816298 100.72266625 2.02133405 113.36133185 2 126 C0.68 126 -0.64 126 -2 126 C-2.66 125.01 -3.32 124.02 -4 123 C-2.68 123 -1.36 123 0 123 C0 82.41 0 41.82 0 0 Z " fill="#C6967F" transform="translate(306,172)"/>
<path d="M0 0 C9.24150009 2.77689306 16.61254406 8.26374334 24.34936523 13.82666016 C25.87899776 14.91398657 27.4384798 15.95898653 29 17 C29 17.66 29 18.32 29 19 C29.82757813 19.33644531 29.82757813 19.33644531 30.671875 19.6796875 C33.71211744 21.40385183 35.81425673 23.62515822 38.25 26.125 C39.14203125 27.03507812 40.0340625 27.94515625 40.953125 28.8828125 C41.62859375 29.58148438 42.3040625 30.28015625 43 31 C42.34 31.66 41.68 32.32 41 33 C41 32.34 41 31.68 41 31 C40.401875 30.9175 39.80375 30.835 39.1875 30.75 C36.37067727 29.78423221 35.52200868 28.51131433 34 26 C34 25.34 34 24.68 34 24 C33.360625 23.87625 32.72125 23.7525 32.0625 23.625 C31.0415625 23.315625 31.0415625 23.315625 30 23 C29.67 22.34 29.34 21.68 29 21 C25.97065509 20.34227572 25.97065509 20.34227572 23 20 C22.938125 19.401875 22.87625 18.80375 22.8125 18.1875 C21.64934748 15.05593552 19.96996683 14.38137992 17 13 C15.68 13 14.36 13 13 13 C12.67 11.35 12.34 9.7 12 8 C10.6078125 7.8453125 10.6078125 7.8453125 9.1875 7.6875 C5.8495811 6.96755671 5.14853242 6.45546562 3 4 C2.01 3.67 1.02 3.34 0 3 C0 2.01 0 1.02 0 0 Z " fill="#E18B65" transform="translate(387,124)"/>
<path d="M0 0 C3.56003012 3.51504779 7.00288189 7.11618569 10.375 10.8125 C10.85324219 11.33513428 11.33148438 11.85776855 11.82421875 12.39624023 C15.12343202 16.01170222 18.37047099 19.66817252 21.5625 23.37890625 C22.99353735 25.04149063 22.99353735 25.04149063 24.6875 26.58984375 C26 28 26 28 26 30 C26.66 30 27.32 30 28 30 C29.5078125 31.75 29.5078125 31.75 31.125 34 C31.93324219 35.11375 31.93324219 35.11375 32.7578125 36.25 C33.16773438 36.8275 33.57765625 37.405 34 38 C32.02 38.495 32.02 38.495 30 39 C30 37.68 30 36.36 30 35 C28.02 34.34 26.04 33.68 24 33 C24 32.01 24 31.02 24 30 C23.34 30 22.68 30 22 30 C19 25.61538462 19 25.61538462 19 23 C17.68 22.67 16.36 22.34 15 22 C15 21.01 15 20.02 15 19 C14.01 19 13.02 19 12 19 C12 18.34 12 17.68 12 17 C10.68 17 9.36 17 8 17 C7.79375 16.195625 7.5875 15.39125 7.375 14.5625 C5.82691578 10.55155451 3.72168115 7.44102516 1.2421875 3.953125 C0 2 0 2 0 0 Z " fill="#DC8C6D" transform="translate(170,173)"/>
<path d="M0 0 C0.495 1.485 0.495 1.485 1 3 C0.34 3 -0.32 3 -1 3 C-1.33 3.99 -1.66 4.98 -2 6 C-4.84657481 9.23124709 -6.73128587 11.23772962 -11 12 C-11.33 12.66 -11.66 13.32 -12 14 C-16.41750114 16.16544173 -20.1404882 17.19008137 -25 18 C-25.33 18.66 -25.66 19.32 -26 20 C-27.66611905 20.042721 -29.33382885 20.04063832 -31 20 C-31.33 19.67 -31.66 19.34 -32 19 C-34.33297433 18.95907063 -36.66705225 18.95758277 -39 19 C-39 18.67 -39 18.34 -39 18 C-37.98421875 17.78085937 -36.9684375 17.56171875 -35.921875 17.3359375 C-22.03173969 14.19765147 -11.30914895 8.77126907 0 0 Z " fill="#DE9776" transform="translate(377,304)"/>
<path d="M0 0 C2 1.375 2 1.375 4 3 C4 3.66 4 4.32 4 5 C4.66 5 5.32 5 6 5 C7.5078125 6.4609375 7.5078125 6.4609375 9.125 8.375 C9.93324219 9.31472656 9.93324219 9.31472656 10.7578125 10.2734375 C12 12 12 12 12 14 C12.66 14 13.32 14 14 14 C18.91995706 18.76779344 22.98465487 24.46970781 27 30 C26.22269531 29.979375 25.44539063 29.95875 24.64453125 29.9375 C21.8386061 30.00381433 20.38423472 30.58712017 18 32 C18 28 18 28 20 25 C19.34 25 18.68 25 18 25 C17.67 24.01 17.34 23.02 17 22 C15.68 22.33 14.36 22.66 13 23 C13 20.69 13 18.38 13 16 C12.34 16 11.68 16 11 16 C10.67 15.34 10.34 14.68 10 14 C9.01 13.67 8.02 13.34 7 13 C7 11.68 7 10.36 7 9 C6.34 9 5.68 9 5 9 C5 8.34 5 7.68 5 7 C4.34 7 3.68 7 3 7 C0 2.61538462 0 2.61538462 0 0 Z " fill="#E78D5F" transform="translate(207,215)"/>
<path d="M0 0 C15.89719558 -0.60882877 38.3230476 0.99365373 51 12 C47.63317508 11.37096687 44.39735031 10.57138755 41.125 9.5625 C39.81595703 9.16611328 39.81595703 9.16611328 38.48046875 8.76171875 C36.46322358 8.14224976 34.44976728 7.51045282 32.4375 6.875 C28.30761968 5.82375774 24.2381437 5.36519152 20 5 C20 4.34 20 3.68 20 3 C19.14277344 3.01160156 18.28554688 3.02320312 17.40234375 3.03515625 C11.49139448 3.0818041 5.81843296 3.08249916 0 2 C0 1.34 0 0.68 0 0 Z " fill="#D99572" transform="translate(336,112)"/>
<path d="M0 0 C2.64 0.33 5.28 0.66 8 1 C8 1.33 8 1.66 8 2 C9.65 2.33 11.3 2.66 13 3 C13.33 4.32 13.66 5.64 14 7 C15.32 7.33 16.64 7.66 18 8 C18 8.66 18 9.32 18 10 C18.639375 10.28875 19.27875 10.5775 19.9375 10.875 C22 12 22 12 23 14 C24.64363134 14.72159424 26.31050386 15.39351421 28 16 C28 17.65 28 19.3 28 21 C28.99 21 29.98 21 31 21 C31.33 23.31 31.66 25.62 32 28 C28.99595967 25.17266792 26.50303253 22.37527198 24.125 19 C21.23644035 15.0131859 18.0467025 12.7517577 14 10 C14 9.34 14 8.68 14 8 C13.360625 7.773125 12.72125 7.54625 12.0625 7.3125 C7.86679739 5.51434174 3.96099444 3.26095979 0 1 C0 0.67 0 0.34 0 0 Z " fill="#DC9676" transform="translate(359,179)"/>
<path d="M0 0 C3 1 3 1 4 3 C4.24149742 6.13946645 4.18977192 9.28975867 4.1875 12.4375 C4.1884668 13.79053223 4.1884668 13.79053223 4.18945312 15.17089844 C4.13848629 21.61356988 3.60860959 27.73791267 2 34 C1.34 34 0.68 34 0 34 C-0.33 36.31 -0.66 38.62 -1 41 C-1.66 41 -2.32 41 -3 41 C-2.79503906 40.07960938 -2.59007812 39.15921875 -2.37890625 38.2109375 C0.35753021 25.35361403 1.56373613 13.13538352 0 0 Z " fill="#DD8A62" transform="translate(401,233)"/>
<path d="M0 0 C2.31 0 4.62 0 7 0 C-4.75451258 7.83634172 -20.1392583 10.53252136 -34 11 C-32.78125 9.0078125 -32.78125 9.0078125 -31 7 C-28.84375 6.6796875 -28.84375 6.6796875 -26.5 6.875 C-22.81760359 7.15731706 -22.26463086 7.17642057 -19 5 C-16.72103501 4.57164417 -14.42574078 4.22691665 -12.125 3.9375 C-8.04581004 3.41352762 -4.02207927 2.86405886 0 2 C0 1.34 0 0.68 0 0 Z " fill="#E3986A" transform="translate(377,373)"/>
<path d="M0 0 C0.33 0 0.66 0 1 0 C1.33 29.04 1.66 58.08 2 88 C-1 85 -1 85 -1.32279968 81.41230774 C-1.31374188 79.89359489 -1.28777301 78.37492865 -1.2487793 76.85668945 C-1.23946381 76.02719788 -1.23014832 75.1977063 -1.22055054 74.34307861 C-1.18615612 71.59939915 -1.13026664 68.8565968 -1.07421875 66.11328125 C-1.04618858 64.21186697 -1.01949786 62.31043251 -0.99409485 60.40898132 C-0.92360547 55.40278421 -0.83489239 50.39706845 -0.74243164 45.39123535 C-0.65130295 40.28377581 -0.57734205 35.1760712 -0.50195312 30.06835938 C-0.35147447 20.04525747 -0.18175009 10.02258019 0 0 Z " fill="#DE875A" transform="translate(244,144)"/>
<path d="M0 0 C3.9841448 1.32804827 6.14418343 2.9599372 9 6 C9.7425 6.53625 10.485 7.0725 11.25 7.625 C11.8275 8.07875 12.405 8.5325 13 9 C13 9.66 13 10.32 13 11 C13.66 11 14.32 11 15 11 C18.11997802 14.30350614 19 15.32409833 19 20 C19.99 20.33 20.98 20.66 22 21 C22 21.99 22 22.98 22 24 C21.34 24 20.68 24 20 24 C18.52483679 22.34191655 17.119287 20.62153953 15.75 18.875 C13.10704701 15.55743219 10.5028587 12.37117264 7.4375 9.4375 C6.633125 8.633125 5.82875 7.82875 5 7 C5 6.34 5 5.68 5 5 C4.34 5 3.68 5 3 5 C1.375 2.5 1.375 2.5 0 0 Z " fill="#DA9877" transform="translate(211,316)"/>
<path d="M0 0 C14.19 0 28.38 0 43 0 C42.67 0.99 42.34 1.98 42 3 C44.31 3.33 46.62 3.66 49 4 C49.495 5.485 49.495 5.485 50 7 C48.91460937 6.72285156 47.82921875 6.44570312 46.7109375 6.16015625 C45.26565719 5.7941437 43.82034288 5.4282654 42.375 5.0625 C41.66214844 4.88009766 40.94929688 4.69769531 40.21484375 4.50976562 C39.51230469 4.33251953 38.80976563 4.15527344 38.0859375 3.97265625 C37.4470459 3.81031494 36.8081543 3.64797363 36.14990234 3.48071289 C31.18410131 2.37037196 26.37321837 1.84684646 21.2890625 1.68359375 C20.04511719 1.64169922 18.80117188 1.59980469 17.51953125 1.55664062 C16.23433594 1.51732422 14.94914062 1.47800781 13.625 1.4375 C12.31660156 1.39431641 11.00820313 1.35113281 9.66015625 1.30664062 C6.44020203 1.20087571 3.22017469 1.09878421 0 1 C0 0.67 0 0.34 0 0 Z " fill="#DB9169" transform="translate(307,171)"/>
<path d="M0 0 C2.31 0.33 4.62 0.66 7 1 C7.268125 1.804375 7.53625 2.60875 7.8125 3.4375 C8.204375 4.283125 8.59625 5.12875 9 6 C9.99 6.33 10.98 6.66 12 7 C12 7.66 12 8.32 12 9 C12.99 9.33 13.98 9.66 15 10 C14.67 11.65 14.34 13.3 14 15 C14.99 15.33 15.98 15.66 17 16 C16.34 16.66 15.68 17.32 15 18 C13.29115995 16.37660195 11.62553283 14.70680947 10 13 C10 12.34 10 11.68 10 11 C9.34 11 8.68 11 8 11 C6.56197818 9.4089357 5.19674665 7.7513985 3.875 6.0625 C3.15054688 5.14597656 2.42609375 4.22945313 1.6796875 3.28515625 C0 1 0 1 0 0 Z " fill="#E28C5D" transform="translate(238,346)"/>
<path d="M0 0 C0.99 0 1.98 0 3 0 C3 0.66 3 1.32 3 2 C4.32 2.33 5.64 2.66 7 3 C7.33 4.32 7.66 5.64 8 7 C8.66 7 9.32 7 10 7 C10.33 8.32 10.66 9.64 11 11 C13.31 11.66 15.62 12.32 18 13 C18.12375 14.134375 18.2475 15.26875 18.375 16.4375 C18.58125 17.613125 18.7875 18.78875 19 20 C19.66 20.33 20.32 20.66 21 21 C18 21 18 21 16.37426758 19.65478516 C15.80345459 19.03909668 15.2326416 18.4234082 14.64453125 17.7890625 C14.02255859 17.12132812 13.40058594 16.45359375 12.75976562 15.765625 C11.79586914 14.70601563 11.79586914 14.70601563 10.8125 13.625 C10.15830078 12.92632812 9.50410156 12.22765625 8.83007812 11.5078125 C4 6.26977157 4 6.26977157 4 4 C3.34 4 2.68 4 2 4 C2 3.34 2 2.68 2 2 C1.34 2 0.68 2 0 2 C0 1.34 0 0.68 0 0 Z " fill="#E1916B" transform="translate(259,246)"/>
<path d="M0 0 C12.82242991 10.46728972 12.82242991 10.46728972 15 17 C15.66 17 16.32 17 17 17 C18.2890625 18.53125 18.2890625 18.53125 19.625 20.5 C20.07101563 21.1496875 20.51703125 21.799375 20.9765625 22.46875 C21.31429687 22.9740625 21.65203125 23.479375 22 24 C21.34 24.33 20.68 24.66 20 25 C20 24.34 20 23.68 20 23 C19.38125 22.95875 18.7625 22.9175 18.125 22.875 C17.42375 22.58625 16.7225 22.2975 16 22 C15 19 15 19 14 16 C12.14255793 15.38932856 12.14255793 15.38932856 10 15 C7.25 12.625 7.25 12.625 5 10 C5 9.01 5 8.02 5 7 C4.01 6.67 3.02 6.34 2 6 C0 3 0 3 0 0 Z " fill="#DC8B67" transform="translate(148,149)"/>
<path d="M0 0 C1.13508688 3.3515741 0.87309359 5.35675676 -0.25 8.6875 C-0.50265625 9.47511719 -0.7553125 10.26273437 -1.015625 11.07421875 C-2 13 -2 13 -5 14 C-5 14.99 -5 15.98 -5 17 C-5.66 17 -6.32 17 -7 17 C-7.99 19.475 -7.99 19.475 -9 22 C-9.66 22 -10.32 22 -11 22 C-11.66 23.98 -12.32 25.96 -13 28 C-13.66 28 -14.32 28 -15 28 C-15 28.66 -15 29.32 -15 30 C-16.32 29.67 -17.64 29.34 -19 29 C-18.57589844 28.53851563 -18.15179688 28.07703125 -17.71484375 27.6015625 C-10.09515529 19.12779907 -4.35500187 10.55636399 0 0 Z " fill="#D49674" transform="translate(397,274)"/>
<path d="M0 0 C1.65 0 3.3 0 5 0 C5 1.32 5 2.64 5 4 C5.66 4 6.32 4 7 4 C7 4.66 7 5.32 7 6 C7.94875 6.226875 8.8975 6.45375 9.875 6.6875 C13 8 13 8 14.1875 10.5625 C14.455625 11.366875 14.72375 12.17125 15 13 C15.99 13.33 16.98 13.66 18 14 C18 14.66 18 15.32 18 16 C18.99 16.33 19.98 16.66 21 17 C21 17.99 21 18.98 21 20 C20.34 20.66 19.68 21.32 19 22 C17.66072279 20.54712339 16.32873153 19.08752741 15 17.625 C14.2575 16.81289062 13.515 16.00078125 12.75 15.1640625 C11 13 11 13 11 11 C10.34 11 9.68 11 9 11 C7.34375 9.35546875 7.34375 9.35546875 5.5 7.1875 C4.8915625 6.47980469 4.283125 5.77210938 3.65625 5.04296875 C2 3 2 3 0 0 Z " fill="#DD9A72" transform="translate(136,232)"/>
<path d="M0 0 C1.32 0.33 2.64 0.66 4 1 C4 1.66 4 2.32 4 3 C5.11375 3.20625 6.2275 3.4125 7.375 3.625 C8.57125 4.07875 9.7675 4.5325 11 5 C12.25 8.0625 12.25 8.0625 13 11 C13.99 11.33 14.98 11.66 16 12 C16 13.98 16 15.96 16 18 C14.33333333 16.33333333 12.66666667 14.66666667 11 13 C10.071875 12.113125 9.14375 11.22625 8.1875 10.3125 C6 8 6 8 6 6 C5.34 6 4.68 6 4 6 C2.61061923 4.03852126 1.2739589 2.03833424 0 0 Z " fill="#E6A175" transform="translate(156,254)"/>
<path d="M0 0 C0.66 0 1.32 0 2 0 C0.33636516 11.64544385 -6.18052654 21.95292698 -12 32 C-12.33 32 -12.66 32 -13 32 C-13 30.35 -13 28.7 -13 27 C-12.34 27 -11.68 27 -11 27 C-9.33510818 23.07561214 -8.12795963 19.10899581 -7 15 C-6.34 15 -5.68 15 -5 15 C-4.67 13.35 -4.34 11.7 -4 10 C-3.34 10 -2.68 10 -2 10 C-1.855625 9.278125 -1.71125 8.55625 -1.5625 7.8125 C-1.04166667 5.20833333 -0.52083333 2.60416667 0 0 Z " fill="#E39B74" transform="translate(457,289)"/>
<path d="M0 0 C0.33 0.99 0.66 1.98 1 3 C1.639375 3.309375 2.27875 3.61875 2.9375 3.9375 C5.5207942 5.26828792 5.78394327 6.41587946 7 9 C7.70125 9.680625 8.4025 10.36125 9.125 11.0625 C11 13 11 13 11 16 C12.32 16 13.64 16 15 16 C15.33 17.32 15.66 18.64 16 20 C13 20 13 20 10.22265625 17.3671875 C9.16085485 16.21079651 8.1077907 15.04633671 7.0625 13.875 C6.27456055 13.02035156 6.27456055 13.02035156 5.47070312 12.1484375 C2.26896058 8.62211279 -0.45937311 5.02827107 -3 1 C-2.01 0.67 -1.02 0.34 0 0 Z " fill="#DC9973" transform="translate(184,281)"/>
<path d="M0 0 C1.875 0.3125 1.875 0.3125 4 1 C6 4 6 4 6 8 C6.66 8 7.32 8 8 8 C10.10428384 13.12919186 10.21755666 17.5610835 10 23 C7.54473513 20.54473513 7.13030095 18.62334652 6.125 15.3125 C4.55828103 10.40619586 2.66619781 6.38018212 0 2 C0 1.34 0 0.68 0 0 Z " fill="#E19470" transform="translate(391,207)"/>
<path d="M0 0 C3.13706204 4.70559306 3.13245501 7.97321351 3.09765625 13.5078125 C3.09553383 14.76874222 3.09553383 14.76874222 3.09336853 16.05514526 C3.08776237 18.74513275 3.07520886 21.43503759 3.0625 24.125 C3.05748579 25.94661338 3.05292275 27.76822807 3.04882812 29.58984375 C3.03779094 34.05992777 3.0205222 38.52994986 3 43 C2.67 43 2.34 43 2 43 C1.67 33.1 1.34 23.2 1 13 C0.67 13 0.34 13 0 13 C0 8.71 0 4.42 0 0 Z " fill="#DE8457" transform="translate(461,218)"/>
<path d="M0 0 C1.32 0 2.64 0 4 0 C4 0.99 4 1.98 4 3 C5.134375 2.814375 6.26875 2.62875 7.4375 2.4375 C9.2009375 2.2209375 9.2009375 2.2209375 11 2 C12 3 12 3 12.0625 6.5625 C12.041875 7.696875 12.02125 8.83125 12 10 C10.35 9.67 8.7 9.34 7 9 C6.67 8.01 6.34 7.02 6 6 C5.34 6 4.68 6 4 6 C2.61061923 4.03852126 1.2739589 2.03833424 0 0 Z " fill="#E38A61" transform="translate(294,285)"/>
<path d="M0 0 C0.2475 0.61875 0.495 1.2375 0.75 1.875 C2.26029304 4.44249816 3.36091208 4.71815729 6 6 C10.90250696 10.12256267 10.90250696 10.12256267 11.3125 13.8125 C11.1578125 14.8953125 11.1578125 14.8953125 11 16 C5.75027653 11.89962427 1.79037089 7.47035213 -2 2 C-1.34 2 -0.68 2 0 2 C0 1.34 0 0.68 0 0 Z " fill="#DE9069" transform="translate(219,113)"/>
<path d="M0 0 C2 0 2 0 3.5078125 1.4609375 C4.04148437 2.09257812 4.57515625 2.72421875 5.125 3.375 C5.66382813 4.00148438 6.20265625 4.62796875 6.7578125 5.2734375 C8 7 8 7 8 9 C8.66 9 9.32 9 10 9 C11.7265625 10.64453125 11.7265625 10.64453125 13.625 12.8125 C14.25664062 13.52019531 14.88828125 14.22789062 15.5390625 14.95703125 C17 17 17 17 17 20 C16.67 19.34 16.34 18.68 16 18 C14.68 18 13.36 18 12 18 C11.67 17.01 11.34 16.02 11 15 C10.34 14.67 9.68 14.34 9 14 C9 12.68 9 11.36 9 10 C8.01 10 7.02 10 6 10 C4.61876037 8.03277992 3.28511874 6.03131672 2 4 C1.34 3.67 0.68 3.34 0 3 C0 2.01 0 1.02 0 0 Z " fill="#DE9674" transform="translate(263,278)"/>
<path d="M0 0 C0.33 0 0.66 0 1 0 C1.33 11.22 1.66 22.44 2 34 C0.68 34 -0.64 34 -2 34 C-2.66 33.01 -3.32 32.02 -4 31 C-2.68 31 -1.36 31 0 31 C0 20.77 0 10.54 0 0 Z " fill="#C69981" transform="translate(306,264)"/>
<path d="M0 0 C6.94717975 2.46559615 13.17232165 5.42513173 19 10 C19 10.33 19 10.66 19 11 C17.02 11 15.04 11 13 11 C12.67 10.01 12.34 9.02 12 8 C10.6078125 7.8453125 10.6078125 7.8453125 9.1875 7.6875 C5.8495811 6.96755671 5.14853242 6.45546562 3 4 C2.01 3.67 1.02 3.34 0 3 C0 2.01 0 1.02 0 0 Z " fill="#DA9975" transform="translate(387,124)"/>
<path d="M0 0 C2.97 0.33 5.94 0.66 9 1 C9.66 3.97 10.32 6.94 11 10 C8 10 8 10 5.95703125 8.06640625 C5.24933594 7.24011719 4.54164063 6.41382813 3.8125 5.5625 C3.09707031 4.73878906 2.38164062 3.91507812 1.64453125 3.06640625 C0 1 0 1 0 0 Z " fill="#E68D64" transform="translate(284,274)"/>
<path d="M0 0 C1.66666667 0.66666667 3.33333333 1.33333333 5 2 C5.9075 2.268125 6.815 2.53625 7.75 2.8125 C10 4 10 4 10.8125 6.625 C10.874375 7.40875 10.93625 8.1925 11 9 C11.99 9.33 12.98 9.66 14 10 C13.67 11.32 13.34 12.64 13 14 C10.95880212 12.38405168 8.95927063 10.7143618 7 9 C7 8.34 7 7.68 7 7 C6.34 7 5.68 7 5 7 C3.7109375 5.46875 3.7109375 5.46875 2.375 3.5 C1.70597656 2.52546875 1.70597656 2.52546875 1.0234375 1.53125 C0.68570313 1.0259375 0.34796875 0.520625 0 0 Z " fill="#E2906D" transform="translate(246,232)"/>
<path d="M0 0 C0.33 0 0.66 0 1 0 C1.09688221 5.44693314 1.12862175 10.63904667 0 16 C-0.66 16 -1.32 16 -2 16 C-2.33 18.31 -2.66 20.62 -3 23 C-3.66 23 -4.32 23 -5 23 C-4.79503906 21.99839844 -4.59007812 20.99679687 -4.37890625 19.96484375 C-4.10666588 18.62241711 -3.8345364 17.27996799 -3.5625 15.9375 C-3.42779297 15.28072266 -3.29308594 14.62394531 -3.15429688 13.94726562 C-2.48894904 10.65298245 -1.91844928 7.40057241 -1.46484375 4.06640625 C-1 1 -1 1 0 0 Z " fill="#D9906A" transform="translate(403,251)"/>
<path d="M0 0 C2 1.375 2 1.375 4 3 C4 3.66 4 4.32 4 5 C4.66 5 5.32 5 6 5 C7.5078125 6.4609375 7.5078125 6.4609375 9.125 8.375 C9.93324219 9.31472656 9.93324219 9.31472656 10.7578125 10.2734375 C12 12 12 12 12 14 C12.66 14 13.32 14 14 14 C14.33 14.99 14.66 15.98 15 17 C14.34 17.33 13.68 17.66 13 18 C13 17.34 13 16.68 13 16 C12.34 16 11.68 16 11 16 C10.67 15.34 10.34 14.68 10 14 C9.01 13.67 8.02 13.34 7 13 C7 11.68 7 10.36 7 9 C6.34 9 5.68 9 5 9 C5 8.34 5 7.68 5 7 C4.34 7 3.68 7 3 7 C0 2.61538462 0 2.61538462 0 0 Z " fill="#D39372" transform="translate(207,215)"/>
<path d="M0 0 C0.93423645 3.01031744 1.04449911 3.86650268 0 7 C-0.03954234 9.33299825 -0.04401732 11.66708189 0 14 C-0.99 14.33 -1.98 14.66 -3 15 C-3 15.66 -3 16.32 -3 17 C-5.5 18.625 -5.5 18.625 -8 20 C-8 19.01 -8 18.02 -8 17 C-7.53980469 16.56042969 -7.07960938 16.12085938 -6.60546875 15.66796875 C-4.43615408 13.41420388 -4.05733303 11.32730036 -3.3125 8.3125 C-3.06113281 7.31863281 -2.80976563 6.32476562 -2.55078125 5.30078125 C-2.27814453 4.16189453 -2.27814453 4.16189453 -2 3 C-1.34 3 -0.68 3 0 3 C0 2.01 0 1.02 0 0 Z " fill="#EB844E" transform="translate(400,271)"/>
<path d="M0 0 C3.56050965 0.30518654 5.00035037 1.00028808 7.8125 3.3125 C10 6 10 6 10 10 C10.99 10.33 11.98 10.66 13 11 C12.67 11.99 12.34 12.98 12 14 C10.55620057 12.61068357 9.12022488 11.21323422 7.6875 9.8125 C6.88699219 9.03519531 6.08648437 8.25789063 5.26171875 7.45703125 C3.08923692 5.09694305 1.53869987 2.80352112 0 0 Z " fill="#E19974" transform="translate(259,370)"/>
<path d="M0 0 C0.99 0 1.98 0 3 0 C1.59601721 4.10110762 -0.37087038 6.98089159 -3.125 10.3125 C-3.84945313 11.19550781 -4.57390625 12.07851563 -5.3203125 12.98828125 C-6.15175781 13.98408203 -6.15175781 13.98408203 -7 15 C-7.33 13.68 -7.66 12.36 -8 11 C-7.01 11 -6.02 11 -5 11 C-5.33 9.68 -5.66 8.36 -6 7 C-5.195625 6.401875 -4.39125 5.80375 -3.5625 5.1875 C-0.77672016 3.19052724 -0.77672016 3.19052724 0 0 Z " fill="#DA9D81" transform="translate(441,321)"/>
<path d="M0 0 C0.99 0.33 1.98 0.66 3 1 C3 1.66 3 2.32 3 3 C3.8971875 3.1546875 3.8971875 3.1546875 4.8125 3.3125 C7.33421352 4.10503854 8.39685699 4.91591409 10 7 C10 7.99 10 8.98 10 10 C10.66 10 11.32 10 12 10 C11.67 11.32 11.34 12.64 11 14 C9.82739389 12.71372289 8.6620717 11.42080217 7.5 10.125 C6.8503125 9.40570313 6.200625 8.68640625 5.53125 7.9453125 C4 6 4 6 4 4 C3.34 4 2.68 4 2 4 C1.34 2.68 0.68 1.36 0 0 Z " fill="#D8997B" transform="translate(199,302)"/>
<path d="M0 0 C3.90285767 1.58667578 6.33520982 4.13350481 9.25 7.125 C10.14203125 8.03507813 11.0340625 8.94515625 11.953125 9.8828125 C12.62859375 10.58148438 13.3040625 11.28015625 14 12 C13.34 12.66 12.68 13.32 12 14 C12 13.34 12 12.68 12 12 C11.401875 11.9175 10.80375 11.835 10.1875 11.75 C7.37067727 10.78423221 6.52200868 9.51131433 5 7 C5 6.34 5 5.68 5 5 C3.68 4.67 2.36 4.34 1 4 C0.67 2.68 0.34 1.36 0 0 Z " fill="#DC916B" transform="translate(416,143)"/>
<path d="M0 0 C1.485 0.99 1.485 0.99 3 2 C3 2.66 3 3.32 3 4 C3.66 4 4.32 4 5 4 C9 8.47058824 9 8.47058824 9 11 C7.02 11 5.04 11 3 11 C2.814375 9.948125 2.814375 9.948125 2.625 8.875 C1.96161655 5.82343613 1.02788045 2.94659062 0 0 Z " fill="#E2936D" transform="translate(430,156)"/>
<path d="M0 0 C5.02474293 0.61830949 9.24720494 2.12976776 13.875 4.0625 C14.90753906 4.48499023 14.90753906 4.48499023 15.9609375 4.91601562 C17.64289909 5.60515266 19.32177697 6.30180798 21 7 C17.7647288 8.07600031 15.98930729 7.93045298 12.8125 6.75 C12.03648437 6.47027344 11.26046875 6.19054687 10.4609375 5.90234375 C9.64882813 5.60457031 8.83671875 5.30679688 8 5 C6.31429094 4.43215541 4.62685594 3.86940125 2.9375 3.3125 C1.625 2.875 0.3125 2.4375 -1 2 C-0.67 1.34 -0.34 0.68 0 0 Z " fill="#D8A181" transform="translate(366,116)"/>
<path d="M0 0 C2 2 2 2 3 5 C3.99 5.33 4.98 5.66 6 6 C6 6.66 6 7.32 6 8 C6.99 8.33 7.98 8.66 9 9 C9 9.99 9 10.98 9 12 C8.34 12.66 7.68 13.32 7 14 C2.50664023 9.47915791 0.26327654 6.45027515 0 0 Z " fill="#E09266" transform="translate(148,240)"/>
<path d="M0 0 C1.32 0 2.64 0 4 0 C4 0.99 4 1.98 4 3 C6.475 3.99 6.475 3.99 9 5 C9 5.99 9 6.98 9 8 C10.32 8.33 11.64 8.66 13 9 C12.01 9.99 11.02 10.98 10 12 C8.33032474 10.19019128 6.66417692 8.3773524 5 6.5625 C4.28457031 5.7880957 4.28457031 5.7880957 3.5546875 4.99804688 C0 1.11328125 0 1.11328125 0 0 Z " fill="#DE9875" transform="translate(230,129)"/>
<path d="M0 0 C0.99 0 1.98 0 3 0 C3.33 1.32 3.66 2.64 4 4 C1.69 5.98 -0.62 7.96 -3 10 C-2.25 2.25 -2.25 2.25 0 0 Z " fill="#E78F5C" transform="translate(426,337)"/>
<path d="M0 0 C1.65 0 3.3 0 5 0 C1.33424778 3.99900242 -2.08927402 6.63557638 -7 9 C-7.99 8.67 -8.98 8.34 -10 8 C-6.25 5 -6.25 5 -4 5 C-4 4.34 -4 3.68 -4 3 C-2.35 3 -0.7 3 1 3 C0.67 2.01 0.34 1.02 0 0 Z " fill="#E09B71" transform="translate(401,360)"/>
<path d="M0 0 C0.33 0.66 0.66 1.32 1 2 C1.66 2 2.32 2 3 2 C3 2.66 3 3.32 3 4 C3.66 4 4.32 4 5 4 C6.7143618 5.95927063 8.38405168 7.95880212 10 10 C9.67 10.66 9.34 11.32 9 12 C4.2 9.53846154 4.2 9.53846154 3.1875 6.8125 C3.125625 6.214375 3.06375 5.61625 3 5 C2.01 5 1.02 5 0 5 C0 3.35 0 1.7 0 0 Z " fill="#E2987E" transform="translate(253,266)"/>
<path d="M0 0 C3.59634744 3.49359465 6.83451967 7.11098131 10 11 C6.62537285 10.45276317 4.91765 9.9451 2 8 C1.01484622 5.37643538 0.57761071 2.75475877 0 0 Z " fill="#E2956A" transform="translate(234,245)"/>
<path d="M0 0 C0.33 0 0.66 0 1 0 C1 3.63 1 7.26 1 11 C0.01 11.33 -0.98 11.66 -2 12 C-2.95024979 8.30458414 -2.95024979 5.69541586 -2 2 C-1.34 2 -0.68 2 0 2 C0 1.34 0 0.68 0 0 Z " fill="#EE854E" transform="translate(460,268)"/>
<path d="M0 0 C3.58459931 4.77946575 4.12621479 6.19411983 4 12 C2.68 11.34 1.36 10.68 0 10 C0 6.7 0 3.4 0 0 Z " fill="#E1875D" transform="translate(449,183)"/>
<path d="M0 0 C3.24952748 -0.14546783 6.49821713 -0.2341168 9.75 -0.3125 C10.67039062 -0.35439453 11.59078125 -0.39628906 12.5390625 -0.43945312 C19.40898911 -0.56390832 19.40898911 -0.56390832 22.640625 2.51953125 C23.08921875 3.33808594 23.5378125 4.15664062 24 5 C22.68 4.67 21.36 4.34 20 4 C20 3.34 20 2.68 20 2 C13.4 1.67 6.8 1.34 0 1 C0 0.67 0 0.34 0 0 Z " fill="#D1825D" transform="translate(96,112)"/>
<path d="M0 0 C0.66 0.99 1.32 1.98 2 3 C1.67 3.99 1.34 4.98 1 6 C-1.5625 7.1875 -1.5625 7.1875 -4 8 C-4 7.34 -4 6.68 -4 6 C-3.34 6 -2.68 6 -2 6 C-1.34 4.02 -0.68 2.04 0 0 Z M-8 8 C-6.68 8.33 -5.36 8.66 -4 9 C-5.485 10.485 -5.485 10.485 -7 12 C-7.99 11.67 -8.98 11.34 -10 11 C-9.34 11 -8.68 11 -8 11 C-8 10.01 -8 9.02 -8 8 Z " fill="#E8834C" transform="translate(386,296)"/>
<path d="M0 0 C1.32 0.33 2.64 0.66 4 1 C4 1.66 4 2.32 4 3 C5.11375 3.20625 6.2275 3.4125 7.375 3.625 C11 5 11 5 12.4375 8.125 C12.623125 9.07375 12.80875 10.0225 13 11 C12.2575 10.360625 11.515 9.72125 10.75 9.0625 C8.28416697 6.89285508 8.28416697 6.89285508 5.9375 6.625 C2.70191218 5.58126199 1.6696288 2.8025912 0 0 Z " fill="#E4956A" transform="translate(156,254)"/>
<path d="M0 0 C2 1.375 2 1.375 4 3 C4 3.66 4 4.32 4 5 C4.66 5 5.32 5 6 5 C7.38938077 6.96147874 8.7260411 8.96166576 10 11 C7 11 7 11 5.3125 9.625 C4 8 4 8 4 6 C3.01 6.33 2.02 6.66 1 7 C0.67 4.69 0.34 2.38 0 0 Z " fill="#D99E81" transform="translate(127,125)"/>
<path d="M0 0 C0.33 0.99 0.66 1.98 1 3 C3.00016466 4.20882096 3.00016466 4.20882096 5 5 C5 6.65 5 8.3 5 10 C2.06799526 7.14723863 -0.64315404 4.34920216 -3 1 C-2.01 0.67 -1.02 0.34 0 0 Z " fill="#E29769" transform="translate(184,281)"/>
<path d="M0 0 C2.0245738 1.93254772 3.42105792 3.63158688 5 6 C5 6.99 5 7.98 5 9 C5.66 9 6.32 9 7 9 C7.33 10.32 7.66 11.64 8 13 C7.01 12.67 6.02 12.34 5 12 C5 11.34 5 10.68 5 10 C4.34 10 3.68 10 3 10 C0.96564469 6.27034861 0 4.33094958 0 0 Z " fill="#D2906E" transform="translate(441,170)"/>
<path d="M0 0 C2.93200474 2.85276137 5.64315404 5.65079784 8 9 C7.01 9.33 6.02 9.66 5 10 C1.32769295 6.92000054 0.43197635 4.7517398 0 0 Z " fill="#D58D69" transform="translate(137,136)"/>
<path d="M0 0 C1.32 0.33 2.64 0.66 4 1 C4 1.66 4 2.32 4 3 C4.99 3 5.98 3 7 3 C7 4.32 7 5.64 7 7 C7.99 7.33 8.98 7.66 10 8 C9.34 8.66 8.68 9.32 8 10 C6.29115995 8.37660195 4.62553283 6.70680947 3 5 C3 4.34 3 3.68 3 3 C2.34 3 1.68 3 1 3 C0.67 2.01 0.34 1.02 0 0 Z " fill="#E29875" transform="translate(245,354)"/>
<path d="M0 0 C1.13508688 3.3515741 0.87309359 5.35675676 -0.25 8.6875 C-0.50265625 9.47511719 -0.7553125 10.26273437 -1.015625 11.07421875 C-2 13 -2 13 -5 14 C-4.34580901 8.93001981 -2.1453591 4.58009223 0 0 Z " fill="#E0946E" transform="translate(397,274)"/>
<path d="M0 0 C3 1 3 1 4 3 C4.06950541 4.54023996 4.08452357 6.08334988 4.0625 7.625 C4.05347656 8.44226563 4.04445313 9.25953125 4.03515625 10.1015625 C4.02355469 10.72804687 4.01195312 11.35453125 4 12 C1.57869669 9.57869669 1.47159496 8.19888623 0.875 4.875 C0.70742188 3.96492187 0.53984375 3.05484375 0.3671875 2.1171875 C0.24601562 1.41851562 0.12484375 0.71984375 0 0 Z " fill="#D89A79" transform="translate(397,218)"/>
<path d="M0 0 C0.2475 0.61875 0.495 1.2375 0.75 1.875 C2.20628639 4.35068687 3.37812506 4.95125002 6 6 C5.67 7.32 5.34 8.64 5 10 C2.35247996 7.42215154 0.05567935 5.08351902 -2 2 C-1.34 2 -0.68 2 0 2 C0 1.34 0 0.68 0 0 Z " fill="#DC9779" transform="translate(219,113)"/>
<path d="M0 0 C-0.99 0.33 -1.98 0.66 -3 1 C-3 1.66 -3 2.32 -3 3 C-4.96147874 4.38938077 -6.96166576 5.7260411 -9 7 C-9 5.68 -9 4.36 -9 3 C-8.34 3 -7.68 3 -7 3 C-6.67 2.01 -6.34 1.02 -6 0 C-3.50907189 -1.24546405 -2.58919267 -0.7767578 0 0 Z " fill="#DE9974" transform="translate(421,350)"/>
<path d="M0 0 C3.59634744 3.49359465 6.83451967 7.11098131 10 11 C8.68 11 7.36 11 6 11 C4.296875 9.1015625 4.296875 9.1015625 2.75 6.625 C2.22921875 5.81289062 1.7084375 5.00078125 1.171875 4.1640625 C0 2 0 2 0 0 Z " fill="#DDA490" transform="translate(170,173)"/>
<path d="M0 0 C1.06546953 3.1964086 1.07427838 5.65747276 1 9 C-0.32 9 -1.64 9 -3 9 C-3.66 8.01 -4.32 7.02 -5 6 C-3.68 6 -2.36 6 -1 6 C-0.67 4.02 -0.34 2.04 0 0 Z " fill="#D5B9A8" transform="translate(307,289)"/>
<path d="M0 0 C3.26008643 3.16952847 6.22237877 6.39937989 9 10 C8.01 10.495 8.01 10.495 7 11 C4.66666667 8.66666667 2.33333333 6.33333333 0 4 C0 2.68 0 1.36 0 0 Z " fill="#E49B7A" transform="translate(244,256)"/>
<path d="M0 0 C0.99 0.495 0.99 0.495 2 1 C2 1.66 2 2.32 2 3 C2.66 3 3.32 3 4 3 C5.2890625 4.53125 5.2890625 4.53125 6.625 6.5 C7.07101563 7.1496875 7.51703125 7.799375 7.9765625 8.46875 C8.48316406 9.22671875 8.48316406 9.22671875 9 10 C8.01 10.495 8.01 10.495 7 11 C7 10.34 7 9.68 7 9 C6.401875 8.95875 5.80375 8.9175 5.1875 8.875 C3 8 3 8 1.25 5.0625 C0 2 0 2 0 0 Z " fill="#E49D85" transform="translate(161,163)"/>
<path d="M0 0 C0.66 0 1.32 0 2 0 C2 0.99 2 1.98 2 3 C1.34 3 0.68 3 0 3 C0.04125 3.928125 0.0825 4.85625 0.125 5.8125 C0 9 0 9 -2 12 C-2.66 12 -3.32 12 -4 12 C-3.33989524 9.15449988 -2.48275034 6.47674001 -1.4375 3.75 C-1.16808594 3.04359375 -0.89867187 2.3371875 -0.62109375 1.609375 C-0.41613281 1.07828125 -0.21117187 0.5471875 0 0 Z " fill="#EF8141" transform="translate(450,301)"/>
<path d="M0 0 C3.11954738 0.33724836 4.6209965 0.6209965 6.875 2.875 C7.24625 3.57625 7.6175 4.2775 8 5 C7.67 5.99 7.34 6.98 7 8 C5.83035398 6.8572081 4.66435444 5.71068285 3.5 4.5625 C2.8503125 3.92441406 2.200625 3.28632813 1.53125 2.62890625 C0 1 0 1 0 0 Z " fill="#DA8D67" transform="translate(172,272)"/>
<path d="M0 0 C5.99725275 2.10714286 5.99725275 2.10714286 8 5 C7.6875 7.1875 7.6875 7.1875 7 9 C7 8.34 7 7.68 7 7 C6.34 7 5.68 7 5 7 C3.7109375 5.46875 3.7109375 5.46875 2.375 3.5 C1.70597656 2.52546875 1.70597656 2.52546875 1.0234375 1.53125 C0.68570313 1.0259375 0.34796875 0.520625 0 0 Z " fill="#E69A7F" transform="translate(246,232)"/>
<path d="M0 0 C1.0625 1.875 1.0625 1.875 2 4 C1.67 4.66 1.34 5.32 1 6 C-0.65 5.67 -2.3 5.34 -4 5 C-2.25 1.125 -2.25 1.125 0 0 Z " fill="#EC8D59" transform="translate(183,276)"/>
<path d="M0 0 C3.465 1.485 3.465 1.485 7 3 C7 3.66 7 4.32 7 5 C7.66 5.33 8.32 5.66 9 6 C8.01 6.33 7.02 6.66 6 7 C5.566875 6.525625 5.13375 6.05125 4.6875 5.5625 C2.97690387 3.76313043 2.97690387 3.76313043 0 3 C0 2.01 0 1.02 0 0 Z " fill="#D78D63" transform="translate(387,124)"/>
<path d="M0 0 C1.32 0 2.64 0 4 0 C7.22265625 5.2734375 7.22265625 5.2734375 8 7 C7.67 7.66 7.34 8.32 7 9 C6.67 8.01 6.34 7.02 6 6 C5.34 6 4.68 6 4 6 C2.61061923 4.03852126 1.2739589 2.03833424 0 0 Z " fill="#C7957B" transform="translate(294,285)"/>
<path d="M0 0 C0.99 0 1.98 0 3 0 C3 0.66 3 1.32 3 2 C3.9590625 2.1546875 3.9590625 2.1546875 4.9375 2.3125 C5.618125 2.539375 6.29875 2.76625 7 3 C7.33 3.99 7.66 4.98 8 6 C6.02 5.34 4.04 4.68 2 4 C2 3.34 2 2.68 2 2 C1.34 2 0.68 2 0 2 C0 1.34 0 0.68 0 0 Z " fill="#E18F62" transform="translate(259,246)"/>
<path d="M0 0 C2.24027294 2.88035092 4.16172132 5.84866512 6 9 C4.68 9 3.36 9 2 9 C1.67 7.02 1.34 5.04 1 3 C0.34 3 -0.32 3 -1 3 C-0.67 2.01 -0.34 1.02 0 0 Z " fill="#EA8456" transform="translate(169,173)"/>
<path d="M0 0 C0.66 0 1.32 0 2 0 C2 1.32 2 2.64 2 4 C2.99 4.33 3.98 4.66 5 5 C4.67 5.99 4.34 6.98 4 8 C2.35 6.35 0.7 4.7 -1 3 C-0.67 2.01 -0.34 1.02 0 0 Z " fill="#D48F6F" transform="translate(267,376)"/>
<path d="M0 0 C0.8125 1.6875 0.8125 1.6875 1 4 C-1.4375 6.75 -1.4375 6.75 -4 9 C-4 7.68 -4 6.36 -4 5 C-3.01 5 -2.02 5 -1 5 C-1.33 3.68 -1.66 2.36 -2 1 C-1.34 0.67 -0.68 0.34 0 0 Z " fill="#DE8F66" transform="translate(437,327)"/>
<path d="M0 0 C1 3 1 3 0.22265625 4.82421875 C-0.8515625 6.54947917 -1.92578125 8.27473958 -3 10 C-3.33 10 -3.66 10 -4 10 C-4 8.35 -4 6.7 -4 5 C-3.34 5 -2.68 5 -2 5 C-1.34 3.35 -0.68 1.7 0 0 Z " fill="#DA9470" transform="translate(448,311)"/>
<path d="M0 0 C2.64752004 2.57784846 4.94432065 4.91648098 7 8 C4.83125748 7.49396008 3.00032373 7.00016187 1 6 C0.375 2.9375 0.375 2.9375 0 0 Z " fill="#D8A181" transform="translate(227,237)"/>
<path d="M0 0 C1.32 0.33 2.64 0.66 4 1 C4 1.66 4 2.32 4 3 C4.99 3 5.98 3 7 3 C7 4.65 7 6.3 7 8 C4.35247996 5.42215154 2.05567935 3.08351902 0 0 Z " fill="#E69F79" transform="translate(129,224)"/>
<path d="M0 0 C0.33 0.66 0.66 1.32 1 2 C1.66 2 2.32 2 3 2 C4.38938077 3.96147874 5.7260411 5.96166576 7 8 C6.01 8 5.02 8 4 8 C4 7.34 4 6.68 4 6 C3.34 6 2.68 6 2 6 C2 5.34 2 4.68 2 4 C1.34 4 0.68 4 0 4 C0 2.68 0 1.36 0 0 Z " fill="#D39374" transform="translate(120,117)"/>
<path d="M0 0 C2 1.375 2 1.375 4 3 C4 3.66 4 4.32 4 5 C4.66 5 5.32 5 6 5 C5.67 5.66 5.34 6.32 5 7 C3.68 6.67 2.36 6.34 1 6 C0.67 4.02 0.34 2.04 0 0 Z " fill="#DD967A" transform="translate(282,299)"/>
<path d="M0 0 C1.32 0.33 2.64 0.66 4 1 C4 1.66 4 2.32 4 3 C4.66 3 5.32 3 6 3 C6.66 4.32 7.32 5.64 8 7 C7.01 7.495 7.01 7.495 6 8 C4.02 5.36 2.04 2.72 0 0 Z " fill="#CC9579" transform="translate(284,274)"/>
<path d="M0 0 C3.36720387 1.39332574 4.9859524 2.9789286 7 6 C4 6 4 6 1.8125 4.125 C0 2 0 2 0 0 Z " fill="#DD9B84" transform="translate(162,260)"/>
<path d="M0 0 C1.0625 1.8125 1.0625 1.8125 2 4 C1.67 4.99 1.34 5.98 1 7 C0.34 7 -0.32 7 -1 7 C-1.33 5.02 -1.66 3.04 -2 1 C-1.34 0.67 -0.68 0.34 0 0 Z " fill="#ED8655" transform="translate(392,200)"/>
<path d="M0 0 C0.2475 0.639375 0.495 1.27875 0.75 1.9375 C1.81562433 4.18741541 1.81562433 4.18741541 4.125 4.75 C4.74375 4.8325 5.3625 4.915 6 5 C5.67 5.66 5.34 6.32 5 7 C3.0625 6.3125 3.0625 6.3125 1 5 C0.25 2.375 0.25 2.375 0 0 Z M0 6 C0.66 6 1.32 6 2 6 C2 6.66 2 7.32 2 8 C1.34 8 0.68 8 0 8 C0 7.34 0 6.68 0 6 Z " fill="#EF824D" transform="translate(162,167)"/>
<path d="M0 0 C1.98 0 3.96 0 6 0 C5.67 1.65 5.34 3.3 5 5 C3.35 3.35 1.7 1.7 0 0 Z " fill="#E5A37F" transform="translate(254,365)"/>
<path d="M0 0 C0.33 0 0.66 0 1 0 C1 1.65 1 3.3 1 5 C0.34 5 -0.32 5 -1 5 C-1.33 5.99 -1.66 6.98 -2 8 C-2.99 7.67 -3.98 7.34 -5 7 C-4.360625 6.21625 -3.72125 5.4325 -3.0625 4.625 C-1.01857687 2.20460719 -1.01857687 2.20460719 0 0 Z " fill="#DCA387" transform="translate(391,286)"/>
<path d="" fill="#FFFFFF" transform="translate(0,0)"/>
<path d="" fill="#FFFFFF" transform="translate(0,0)"/>
<path d="" fill="#FFFFFF" transform="translate(0,0)"/>
<path d="" fill="#FFFFFF" transform="translate(0,0)"/>
<path d="" fill="#FFFFFF" transform="translate(0,0)"/>
<path d="" fill="#FFFFFF" transform="translate(0,0)"/>
<path d="" fill="#FFFFFF" transform="translate(0,0)"/>
<path d="" fill="#FFFFFF" transform="translate(0,0)"/>
<path d="" fill="#FFFFFF" transform="translate(0,0)"/>
<path d="" fill="#FFFFFF" transform="translate(0,0)"/>
<path d="" fill="#FFFFFF" transform="translate(0,0)"/>
<path d="" fill="#FFFFFF" transform="translate(0,0)"/>
<path d="" fill="#FFFFFF" transform="translate(0,0)"/>
<path d="" fill="#FFFFFF" transform="translate(0,0)"/>
<path d="" fill="#FFFFFF" transform="translate(0,0)"/>
<path d="" fill="#FFFFFF" transform="translate(0,0)"/>
<path d="" fill="#FFFFFF" transform="translate(0,0)"/>
<path d="" fill="#FFFFFF" transform="translate(0,0)"/>
<path d="" fill="#FFFFFF" transform="translate(0,0)"/>
<path d="" fill="#FFFFFF" transform="translate(0,0)"/>
<path d="" fill="#FFFFFF" transform="translate(0,0)"/>
<path d="" fill="#FFFFFF" transform="translate(0,0)"/>
<path d="" fill="#FFFFFF" transform="translate(0,0)"/>
<path d="" fill="#FFFFFF" transform="translate(0,0)"/>
<path d="" fill="#FFFFFF" transform="translate(0,0)"/>
<path d="" fill="#FFFFFF" transform="translate(0,0)"/>
<path d="" fill="#FFFFFF" transform="translate(0,0)"/>
<path d="" fill="#FFFFFF" transform="translate(0,0)"/>
<path d="" fill="#FFFFFF" transform="translate(0,0)"/>
<path d="" fill="#FFFFFF" transform="translate(0,0)"/>
<path d="" fill="#FFFFFF" transform="translate(0,0)"/>
<path d="" fill="#FFFFFF" transform="translate(0,0)"/>
<path d="" fill="#FFFFFF" transform="translate(0,0)"/>
<path d="" fill="#FFFFFF" transform="translate(0,0)"/>
<path d="" fill="#FFFFFF" transform="translate(0,0)"/>
<path d="" fill="#FFFFFF" transform="translate(0,0)"/>
<path d="" fill="#FFFFFF" transform="translate(0,0)"/>
<path d="" fill="#FFFFFF" transform="translate(0,0)"/>
<path d="" fill="#FFFFFF" transform="translate(0,0)"/>
<path d="" fill="#FFFFFF" transform="translate(0,0)"/>
<path d="" fill="#FFFFFF" transform="translate(0,0)"/>
<path d="" fill="#FFFFFF" transform="translate(0,0)"/>
<path d="" fill="#FFFFFF" transform="translate(0,0)"/>
<path d="" fill="#FFFFFF" transform="translate(0,0)"/>
<path d="" fill="#FFFFFF" transform="translate(0,0)"/>
<path d="" fill="#FFFFFF" transform="translate(0,0)"/>
<path d="" fill="#FFFFFF" transform="translate(0,0)"/>
<path d="" fill="#FFFFFF" transform="translate(0,0)"/>
<path d="" fill="#FFFFFF" transform="translate(0,0)"/>
<path d="" fill="#FFFFFF" transform="translate(0,0)"/>
<path d="" fill="#FFFFFF" transform="translate(0,0)"/>
<path d="" fill="#FFFFFF" transform="translate(0,0)"/>
<path d="" fill="#FFFFFF" transform="translate(0,0)"/>
<path d="" fill="#FFFFFF" transform="translate(0,0)"/>
<path d="" fill="#FFFFFF" transform="translate(0,0)"/>
<path d="" fill="#FFFFFF" transform="translate(0,0)"/>
<path d="" fill="#FFFFFF" transform="translate(0,0)"/>
<path d="" fill="#FFFFFF" transform="translate(0,0)"/>
<path d="" fill="#FFFFFF" transform="translate(0,0)"/>
<path d="" fill="#FFFFFF" transform="translate(0,0)"/>
<path d="" fill="#FFFFFF" transform="translate(0,0)"/>
<path d="" fill="#FFFFFF" transform="translate(0,0)"/>
<path d="" fill="#FFFFFF" transform="translate(0,0)"/>
<path d="" fill="#FFFFFF" transform="translate(0,0)"/>
<path d="" fill="#FFFFFF" transform="translate(0,0)"/>
</svg>
